<svg width="393" height="415" viewBox="0 0 393 415" fill="none" xmlns="http://www.w3.org/2000/svg">
<path d="M208.852 8H15C9.47715 8 5 12.4772 5 18V75.6647C5 81.1875 9.47714 85.6647 15 85.6647H379.858C385.381 85.6647 389.858 81.1875 389.858 75.6646V46.2779C389.858 40.7551 385.381 36.2779 379.858 36.2779H322.674H258.444C256.515 36.2779 254.628 35.7204 253.009 34.6725L214.286 9.60535C212.667 8.5575 210.78 8 208.852 8Z" fill="#9AD0FD"/>
<path d="M208.852 34.9443H15C9.47715 34.9443 5 39.4215 5 44.9443V102.609C5 108.132 9.47714 112.609 15 112.609H379.858C385.381 112.609 389.858 108.132 389.858 102.609V73.2222C389.858 67.6994 385.381 63.2222 379.858 63.2222H322.674H258.444C256.515 63.2222 254.628 62.6647 253.009 61.6169L214.286 36.5497C212.667 35.5018 210.78 34.9443 208.852 34.9443Z" fill="#329EF9"/>
<rect x="5" y="143.866" width="385" height="263.134" rx="10" fill="#108D2B"/>
<path d="M208.852 59.5122H15C9.47715 59.5122 5 63.9894 5 69.5122V127.177C5 132.7 9.47714 137.177 15 137.177H379.858C385.381 137.177 389.858 132.7 389.858 127.177V97.7901C389.858 92.2673 385.381 87.7901 379.858 87.7901H322.674H258.444C256.515 87.7901 254.628 87.2326 253.009 86.1848L214.286 61.1176C212.667 60.0697 210.78 59.5122 208.852 59.5122Z" fill="#0052CC"/>
<path d="M208.852 85.6646H15C9.47715 85.6646 5 90.1417 5 95.6646V153.329C5 158.852 9.47714 163.329 15 163.329H379.858C385.381 163.329 389.858 158.852 389.858 153.329V123.942C389.858 118.42 385.381 113.942 379.858 113.942H322.674H258.444C256.515 113.942 254.628 113.385 253.009 112.337L214.286 87.2699C212.667 86.2221 210.78 85.6646 208.852 85.6646Z" fill="#108D2B"/>
<path fill-rule="evenodd" clip-rule="evenodd" d="M196.781 293.008C188.482 282.408 176.854 278.364 166.945 280.592C156.87 282.858 149.293 291.474 149.293 304.391C149.293 324.284 161.169 338.025 175.128 347.972C168.378 354.095 163.252 361.221 160.193 368.136C159.87 368.866 159.568 369.598 159.289 370.33H121.383C119.515 370.33 118 371.844 118 373.711C118 375.579 119.515 377.093 121.383 377.093H157.378C156.911 379.724 156.799 382.288 157.108 384.702C157.778 389.948 160.461 394.486 165.54 397.024C170.95 399.728 176.156 399.485 180.782 397.337C185.24 395.266 189.001 391.511 192.068 387.413C194.473 384.201 196.574 380.612 198.345 377.093H273.617C275.485 377.093 277 375.579 277 373.711C277 371.844 275.485 370.33 273.617 370.33H201.42C202.601 367.446 203.506 364.854 204.116 362.871C205.642 357.915 207.419 348.433 207.801 337.632C208.532 337.402 209.24 337.194 209.926 337.007C214.561 335.739 217.912 335.496 220.108 335.848C222.222 336.186 222.822 336.961 223.046 337.51C223.366 338.295 223.47 339.952 222.283 342.834C220.757 346.538 219.983 349.932 220.718 352.642C221.128 354.154 222.022 355.48 223.435 356.325C224.771 357.125 226.243 357.298 227.525 357.218C230.014 357.062 232.737 355.897 235.243 354.388C237.832 352.829 240.53 350.697 243.026 348.202C245.271 345.959 247.575 343.912 249.743 342.309C251.955 340.671 253.831 339.643 255.234 339.227C255.918 339.023 256.334 339.013 256.542 339.039C256.682 339.056 256.709 339.083 256.725 339.1C256.868 339.236 257.546 340.148 257.546 343.275C257.546 349.071 259.095 353.625 263.268 355.294C265.159 356.05 267.108 355.966 268.756 355.623C270.417 355.278 272.028 354.616 273.438 353.911C275.11 353.076 275.787 351.045 274.951 349.374C274.116 347.704 272.084 347.027 270.413 347.862C269.286 348.425 268.254 348.82 267.377 349.003C266.487 349.188 266.005 349.104 265.781 349.015C265.705 348.985 264.312 348.434 264.312 343.275C264.312 339.641 263.612 336.323 261.403 334.214C258.967 331.888 255.809 332 253.306 332.744C250.799 333.489 248.182 335.049 245.717 336.873C243.208 338.729 240.649 341.014 238.242 343.42C236.086 345.575 233.816 347.353 231.753 348.595C229.977 349.664 228.567 350.208 227.627 350.396C227.399 350.442 227.198 350.262 227.216 350.03C227.283 349.183 227.589 347.714 228.539 345.41C230.016 341.824 230.607 338.134 229.312 334.958C227.921 331.547 224.805 329.75 221.178 329.17C217.633 328.603 213.219 329.095 208.14 330.483C208.04 330.511 207.939 330.539 207.838 330.567C207.506 317.685 204.859 303.326 196.781 293.008ZM194.064 370.33C195.687 366.683 196.902 363.31 197.65 360.882C198.864 356.937 200.37 349.235 200.907 340.172C198.482 341.182 195.876 342.375 193.093 343.767C190.873 344.876 188.753 346.116 186.743 347.459C187.5 347.91 188.263 348.355 189.03 348.793C190.652 349.72 191.215 351.786 190.288 353.407C189.361 355.028 187.294 355.591 185.672 354.665C184.1 353.766 182.523 352.829 180.955 351.851C174.445 357.433 169.52 364.032 166.625 370.33H194.064ZM164.279 377.093C163.713 379.598 163.568 381.881 163.819 383.845C164.249 387.207 165.804 389.595 168.566 390.975C172.037 392.71 175.076 392.529 177.931 391.204C180.952 389.8 183.904 387.031 186.651 383.362C188.115 381.406 189.465 379.272 190.687 377.093H164.279ZM190.067 337.718C194.034 335.735 197.718 334.105 201.107 332.81C201.105 332.444 201.101 332.077 201.095 331.71C200.888 319.067 198.382 306.025 191.453 297.176C184.529 288.333 175.436 285.614 168.43 287.19C161.59 288.728 156.059 294.484 156.059 304.391C156.059 321.81 166.789 334.095 180.571 343.526C183.515 341.366 186.689 339.406 190.067 337.718Z" fill="#5EB6FF"/>
<path d="M143.227 333.279C144.548 334.6 144.548 336.741 143.227 338.061L136.316 344.969L143.227 351.877C144.548 353.197 144.548 355.338 143.227 356.659C141.906 357.979 139.764 357.979 138.443 356.659L131.532 349.751L124.621 356.659C123.3 357.979 121.158 357.979 119.837 356.659C118.515 355.338 118.515 353.197 119.837 351.877L126.748 344.969L119.837 338.061C118.515 336.741 118.515 334.6 119.837 333.279C121.158 331.959 123.3 331.959 124.621 333.279L131.532 340.187L138.443 333.279C139.764 331.959 141.906 331.959 143.227 333.279Z" fill="#5EB6FF"/>
</svg>
