<svg width="44" height="44" viewBox="0 0 44 44" fill="none" xmlns="http://www.w3.org/2000/svg">
<path d="M9.89998 18.3333L7.24089 19.542C5.19025 20.4741 4.16492 20.9402 3.99733 21.6597C3.94519 21.8836 3.94519 22.1164 3.99733 22.3403C4.16492 23.0598 5.19025 23.5259 7.24089 24.458L9.89998 25.6667M9.89998 18.3333L7.24089 17.1247C5.19025 16.1925 4.16492 15.7265 3.99733 15.0069C3.94519 14.7831 3.94519 14.5503 3.99733 14.3264C4.16492 13.6068 5.19025 13.1408 7.2409 12.2087L20.8827 6.00785C21.3706 5.78607 21.6146 5.67517 21.8721 5.65315C21.9572 5.64587 22.0427 5.64587 22.1278 5.65315C22.3854 5.67517 22.6293 5.78607 23.1172 6.00785L36.7591 12.2087C38.8097 13.1408 39.835 13.6068 40.0026 14.3264C40.0548 14.5503 40.0548 14.7831 40.0026 15.0069C39.835 15.7265 38.8097 16.1925 36.7591 17.1247L34.1 18.3333M9.89998 18.3333L20.8827 23.3255C21.3706 23.5473 21.6146 23.6582 21.8721 23.6802C21.9572 23.6875 22.0427 23.6875 22.1278 23.6802C22.3854 23.6582 22.6293 23.5473 23.1172 23.3255L34.1 18.3333M9.89998 25.6667L7.24089 26.8753C5.19025 27.8075 4.16492 28.2735 3.99733 28.9931C3.94519 29.2169 3.94519 29.4498 3.99733 29.6736C4.16492 30.3932 5.19025 30.8592 7.24089 31.7913L20.8827 37.9922C21.3706 38.2139 21.6146 38.3248 21.8721 38.3469C21.9572 38.3541 22.0427 38.3541 22.1278 38.3469C22.3854 38.3248 22.6293 38.2139 23.1172 37.9922L36.7591 31.7913C38.8097 30.8592 39.835 30.3932 40.0026 29.6736C40.0548 29.4498 40.0548 29.2169 40.0026 28.9931C39.835 28.2735 38.8097 27.8075 36.7591 26.8753L34.1 25.6667M9.89998 25.6667L20.8827 30.6588C21.3706 30.8806 21.6146 30.9915 21.8721 31.0135C21.9572 31.0208 22.0427 31.0208 22.1278 31.0135C22.3854 30.9915 22.6293 30.8806 23.1172 30.6588L34.1 25.6667M34.1 25.6667L36.7591 24.458C38.8097 23.5259 39.835 23.0598 40.0026 22.3403C40.0548 22.1164 40.0548 21.8836 40.0026 21.6597C39.835 20.9402 38.8097 20.4741 36.7591 19.542L34.1 18.3333" stroke="#329EF9" stroke-width="1.5" stroke-linejoin="round"/>
</svg>
