<svg width="40" height="40" viewBox="0 0 40 40" fill="none" xmlns="http://www.w3.org/2000/svg">
<path d="M25 16.6667H28.3333C30.8256 16.6667 32.0718 16.6667 33 17.2026C33.6081 17.5536 34.113 18.0586 34.4641 18.6667C35 19.5949 35 20.841 35 23.3333C35 25.8256 35 27.0718 34.4641 28C34.113 28.6081 33.6081 29.113 33 29.4641C32.0718 30 30.8256 30 28.3333 30H21.6667C19.1744 30 17.9282 30 17 29.4641C16.3919 29.113 15.887 28.6081 15.5359 28C15 27.0718 15 25.8256 15 23.3333M25 16.6667C25 19.159 25 20.4051 24.4641 21.3333C24.113 21.9414 23.6081 22.4464 23 22.7974C22.0718 23.3333 20.8256 23.3333 18.3333 23.3333H15M25 16.6667C25 14.1744 25 12.9282 24.4641 12C24.113 11.3919 23.6081 10.887 23 10.5359C22.0718 10 20.8256 10 18.3333 10L11.6667 10C9.17436 10 7.9282 10 7 10.5359C6.39192 10.887 5.88697 11.3919 5.5359 12C5 12.9282 5 14.1744 5 16.6667C5 19.159 5 20.4051 5.5359 21.3333C5.88697 21.9414 6.39192 22.4464 7 22.7974C7.9282 23.3333 9.17436 23.3333 11.6667 23.3333H15" stroke="#329EF9" stroke-width="1.5" stroke-linejoin="round"/>
</svg>
