<svg width="44" height="44" viewBox="0 0 44 44" fill="none" xmlns="http://www.w3.org/2000/svg">
<path d="M31.1667 14.6667C31.1667 9.60406 27.0626 5.5 22 5.5C16.9374 5.5 12.8333 9.60406 12.8333 14.6667M22 28.4167V33M22 28.4167C24.025 28.4167 25.6667 26.775 25.6667 24.75C25.6667 22.725 24.025 21.0833 22 21.0833C19.975 21.0833 18.3333 22.725 18.3333 24.75C18.3333 26.775 19.975 28.4167 22 28.4167ZM12.7 38.5H31.3C34.2998 38.5 35.7997 38.5 36.8511 37.7361C37.1907 37.4894 37.4894 37.1907 37.7361 36.8511C38.5 35.7997 38.5 34.2998 38.5 31.3V21.8667C38.5 18.8669 38.5 17.367 37.7361 16.3155C37.4894 15.9759 37.1907 15.6773 36.8511 15.4306C35.7997 14.6667 34.2998 14.6667 31.3 14.6667H12.7C9.70021 14.6667 8.20032 14.6667 7.14886 15.4306C6.80928 15.6773 6.51065 15.9759 6.26393 16.3155C5.5 17.367 5.5 18.8669 5.5 21.8667V31.3C5.5 34.2998 5.5 35.7997 6.26393 36.8511C6.51065 37.1907 6.80928 37.4894 7.14886 37.7361C8.20032 38.5 9.70021 38.5 12.7 38.5Z" stroke="#329EF9" stroke-width="1.5" stroke-linecap="round" stroke-linejoin="round"/>
</svg>
