<svg width="44" height="44" viewBox="0 0 44 44" fill="none" xmlns="http://www.w3.org/2000/svg">
<g clip-path="url(#clip0_403_3024)">
<path d="M36.5748 10.1501L30.1838 3.75911C28.9951 2.56392 27.5811 1.61635 26.0237 0.97124C24.4663 0.326126 22.7964 -0.00372361 21.1107 0.000777881H12.8332C10.4029 0.00368895 8.07303 0.970395 6.35457 2.68885C4.63612 4.4073 3.66941 6.73719 3.6665 9.16745V34.8341C3.66941 37.2644 4.63612 39.5943 6.35457 41.3127C8.07303 43.0312 10.4029 43.9979 12.8332 44.0008H31.1665C33.5968 43.9979 35.9267 43.0312 37.6451 41.3127C39.3636 39.5943 40.3303 37.2644 40.3332 34.8341V19.2233C40.3377 17.5376 40.0078 15.8677 39.3627 14.3103C38.7176 12.7529 37.77 11.3389 36.5748 10.1501V10.1501ZM33.9825 12.7424C34.5418 13.3189 35.0231 13.966 35.4143 14.6674H27.4998C27.0136 14.6674 26.5473 14.4743 26.2035 14.1305C25.8597 13.7867 25.6665 13.3203 25.6665 12.8341V4.91961C26.3679 5.31082 27.0151 5.79219 27.5915 6.35145L33.9825 12.7424ZM36.6665 34.8341C36.6665 36.2928 36.087 37.6918 35.0556 38.7232C34.0241 39.7547 32.6252 40.3341 31.1665 40.3341H12.8332C11.3745 40.3341 9.97553 39.7547 8.94408 38.7232C7.91263 37.6918 7.33317 36.2928 7.33317 34.8341V9.16745C7.33317 7.70875 7.91263 6.30981 8.94408 5.27836C9.97553 4.24691 11.3745 3.66744 12.8332 3.66744H21.1107C21.4132 3.66744 21.7028 3.72611 21.9998 3.75361V12.8341C21.9998 14.2928 22.5793 15.6918 23.6107 16.7232C24.6422 17.7547 26.0411 18.3341 27.4998 18.3341H36.5803C36.6078 18.6311 36.6665 18.9208 36.6665 19.2233V34.8341ZM30.6605 24.4043C30.9953 24.7564 31.1765 25.2271 31.1645 25.7128C31.1525 26.1985 30.9481 26.6596 30.5963 26.9948L24.0165 33.2538C22.9822 34.2718 21.5875 34.8398 20.1363 34.8339C18.685 34.8281 17.2949 34.2489 16.2688 33.2226L13.4455 30.7036C13.0823 30.3798 12.8626 29.9249 12.8347 29.4391C12.821 29.1986 12.8547 28.9577 12.934 28.7301C13.0133 28.5026 13.1367 28.293 13.297 28.1131C13.4573 27.9333 13.6515 27.7868 13.8685 27.682C14.0855 27.5772 14.3209 27.5161 14.5615 27.5024C15.0473 27.4745 15.5243 27.6408 15.8875 27.9646L18.7933 30.5569C18.9597 30.7438 19.1625 30.8945 19.3893 31C19.6161 31.1055 19.8621 31.1635 20.1122 31.1704C20.3622 31.1772 20.611 31.1329 20.8433 31.04C21.0755 30.9471 21.2863 30.8077 21.4627 30.6303L28.0627 24.3401C28.2372 24.1732 28.443 24.0425 28.6682 23.9554C28.8933 23.8683 29.1335 23.8265 29.3749 23.8324C29.6163 23.8384 29.8541 23.892 30.0748 23.9901C30.2954 24.0883 30.4944 24.229 30.6605 24.4043V24.4043Z" fill="#329EF9"/>
</g>
<defs>
<clipPath id="clip0_403_3024">
<rect width="44" height="44" fill="white"/>
</clipPath>
</defs>
</svg>
