<svg width="44" height="44" viewBox="0 0 44 44" fill="none" xmlns="http://www.w3.org/2000/svg">
<g clip-path="url(#clip0_403_3084)">
<path d="M35.8142 5.7237L32.7782 2.68404C31.9287 1.83028 30.9184 1.15346 29.8057 0.692751C28.6929 0.232044 27.4998 -0.00340265 26.2955 3.71533e-05H14.6667C12.2364 0.00294823 9.90652 0.969654 8.18807 2.68811C6.46962 4.40656 5.50291 6.73645 5.5 9.1667V34.8334C5.50291 37.2636 6.46962 39.5935 8.18807 41.312C9.90652 43.0304 12.2364 43.9971 14.6667 44H29.3333C31.7636 43.9971 34.0935 43.0304 35.8119 41.312C37.5304 39.5935 38.4971 37.2636 38.5 34.8334V12.2045C38.503 11.0004 38.2671 9.80758 37.8061 8.69516C37.3451 7.58274 36.668 6.57277 35.8142 5.7237V5.7237ZM33.2218 8.31604C33.4819 8.57512 33.7147 8.86017 33.9167 9.1667H29.3333V4.58337C29.6394 4.78746 29.9249 5.02077 30.1858 5.28004L33.2218 8.31604ZM34.8333 34.8334C34.8333 36.2921 34.2539 37.691 33.2224 38.7225C32.191 39.7539 30.792 40.3334 29.3333 40.3334H14.6667C13.208 40.3334 11.809 39.7539 10.7776 38.7225C9.74613 37.691 9.16667 36.2921 9.16667 34.8334V9.1667C9.16667 7.70801 9.74613 6.30907 10.7776 5.27762C11.809 4.24617 13.208 3.6667 14.6667 3.6667H25.6667V9.1667C25.6667 10.1392 26.053 11.0718 26.7406 11.7594C27.4282 12.4471 28.3609 12.8334 29.3333 12.8334H34.8333V34.8334ZM29.3333 16.5C29.8196 16.5 30.2859 16.6932 30.6297 17.037C30.9735 17.3808 31.1667 17.8471 31.1667 18.3334C31.1667 18.8196 30.9735 19.2859 30.6297 19.6297C30.2859 19.9736 29.8196 20.1667 29.3333 20.1667H14.6667C14.1804 20.1667 13.7141 19.9736 13.3703 19.6297C13.0265 19.2859 12.8333 18.8196 12.8333 18.3334C12.8333 17.8471 13.0265 17.3808 13.3703 17.037C13.7141 16.6932 14.1804 16.5 14.6667 16.5H29.3333ZM31.1667 25.6667C31.1667 26.1529 30.9735 26.6193 30.6297 26.9631C30.2859 27.3069 29.8196 27.5 29.3333 27.5H14.6667C14.1804 27.5 13.7141 27.3069 13.3703 26.9631C13.0265 26.6193 12.8333 26.1529 12.8333 25.6667C12.8333 25.1805 13.0265 24.7142 13.3703 24.3703C13.7141 24.0265 14.1804 23.8334 14.6667 23.8334H29.3333C29.8196 23.8334 30.2859 24.0265 30.6297 24.3703C30.9735 24.7142 31.1667 25.1805 31.1667 25.6667ZM30.8147 31.9239C31.0997 32.3159 31.2178 32.8049 31.1432 33.2838C31.0687 33.7627 30.8075 34.1927 30.4168 34.4795C28.5593 35.8031 26.3593 36.5626 24.0808 36.6667C22.7496 36.6603 21.4588 36.2085 20.4142 35.3834C19.8128 34.9709 19.5837 34.8334 19.1308 34.8334C17.9051 35.023 16.7486 35.5243 15.7722 36.289C15.3849 36.5651 14.9054 36.6799 14.4351 36.6091C13.9648 36.5383 13.5404 36.2875 13.2515 35.9096C12.9626 35.5318 12.8319 35.0565 12.887 34.584C12.942 34.1116 13.1785 33.679 13.5465 33.3777C15.162 32.1236 17.1018 31.3566 19.1382 31.1667C20.3594 31.1862 21.5401 31.6083 22.4968 32.3675C22.933 32.7598 23.4945 32.984 24.0808 33C25.5799 32.8877 27.0214 32.3756 28.2553 31.5169C28.6488 31.2317 29.1393 31.1144 29.6192 31.1907C30.0991 31.267 30.5291 31.5307 30.8147 31.9239V31.9239Z" fill="#329EF9"/>
</g>
<defs>
<clipPath id="clip0_403_3084">
<rect width="44" height="44" fill="white"/>
</clipPath>
</defs>
</svg>
