<svg width="45" height="45" viewBox="0 0 45 45" fill="none" xmlns="http://www.w3.org/2000/svg">
<path d="M35.9309 7.39166C33.5795 7.38402 26.4112 7.76966 21.1982 12.4216C21.0862 12.5216 21.0302 12.5716 20.9689 12.6018C20.948 12.612 20.9283 12.6201 20.9062 12.6275C20.8414 12.6491 20.7701 12.6527 20.6274 12.6598L13.0418 13.0411C11.1972 13.1339 10.2748 13.1802 9.61839 13.6501C9.33683 13.8517 9.09586 14.1046 8.90817 14.3956C8.47059 15.074 8.46895 15.9975 8.46567 17.8445L8.46567 17.8445C8.46236 19.7073 8.46071 20.6387 8.90111 21.3216C9.08995 21.6144 9.33272 21.8686 9.61648 22.0708C10.2783 22.5423 11.2087 22.5836 13.0697 22.6664L14.9642 22.7506L14.9642 22.7506C15.1178 22.7574 15.1946 22.7609 15.2651 22.7859C15.2884 22.7942 15.3111 22.8042 15.3329 22.8159C15.399 22.8511 15.4532 22.9056 15.5617 23.0145L21.0356 28.5078C21.1441 28.6167 21.1984 28.6712 21.2334 28.7373C21.245 28.7592 21.2549 28.7819 21.2631 28.8053C21.2879 28.8759 21.2911 28.9527 21.2974 29.1063L21.3749 31.0011C21.451 32.8623 21.4891 33.793 21.9582 34.4564C22.1593 34.7409 22.4127 34.9845 22.7048 35.1744C23.3861 35.6173 24.3175 35.6189 26.1803 35.6222C28.0273 35.6255 28.9508 35.6271 29.6308 35.192C29.9224 35.0053 30.1762 34.7652 30.3788 34.4844C30.851 33.8296 30.9007 32.9075 31 31.0632L31 31.0631L31.4082 23.479C31.4159 23.3363 31.4197 23.2649 31.4415 23.2003C31.449 23.1782 31.4571 23.1585 31.4675 23.1376C31.4978 23.0765 31.548 23.0207 31.6484 22.909C36.3189 17.7125 36.73 10.5457 36.7307 8.19426C36.7308 7.88519 36.7308 7.73065 36.6357 7.59934C36.6076 7.56047 36.5643 7.51703 36.5255 7.48874C36.3945 7.39317 36.24 7.39266 35.9309 7.39166Z" stroke="#329EF9" stroke-width="1.5" stroke-linejoin="round"/>
<path d="M7.36163 35.9338C7.37393 36.1946 7.38008 36.325 7.47024 36.4471C7.49576 36.4816 7.53938 36.5254 7.57383 36.551C7.69553 36.6416 7.82593 36.6482 8.08671 36.6615C9.46074 36.7312 12.643 36.6387 14.718 34.5711C14.8104 34.4789 14.9011 34.3825 14.9896 34.2825C15.4439 33.7691 15.6711 33.5124 15.8142 32.7762C15.8723 32.4775 15.8541 31.8629 15.7785 31.5681C15.5921 30.8417 15.1948 30.4429 14.4001 29.6454C13.6054 28.8479 13.2081 28.4491 12.4823 28.2602C12.1878 28.1835 11.5732 28.1631 11.2743 28.2201C10.5376 28.3606 10.2801 28.5869 9.7651 29.0394C9.66478 29.1276 9.56802 29.2179 9.47554 29.31C7.40059 31.3776 7.29681 34.5595 7.36163 35.9338Z" stroke="#329EF9" stroke-width="1.5" stroke-linejoin="round"/>
<path d="M22.1838 21.8884C23.0762 22.784 24.5257 22.7866 25.4213 21.8941C26.3169 21.0017 26.3195 19.5522 25.4271 18.6566C24.5346 17.761 23.0851 17.7584 22.1895 18.6509C21.2939 19.5433 21.2914 20.9928 22.1838 21.8884Z" stroke="#329EF9" stroke-width="1.5" stroke-linejoin="round"/>
</svg>
