<svg width="40" height="40" viewBox="0 0 40 40" fill="none" xmlns="http://www.w3.org/2000/svg">
<path d="M21.6666 5H13.7333C11.4835 5 10.3586 5 9.56996 5.57295C9.31527 5.75799 9.0913 5.98196 8.90626 6.23664C8.33331 7.02524 8.33331 8.15016 8.33331 10.4V29.6C8.33331 31.8498 8.33331 32.9748 8.90626 33.7634C9.0913 34.018 9.31527 34.242 9.56996 34.4271C10.3586 35 11.4835 35 13.7333 35H26.2666C28.5165 35 29.6414 35 30.43 34.4271C30.6847 34.242 30.9087 34.018 31.0937 33.7634C31.6666 32.9748 31.6666 31.8498 31.6666 29.6V15M21.6666 5V9.6C21.6666 11.8498 21.6666 12.9748 22.2396 13.7634C22.4246 14.018 22.6486 14.242 22.9033 14.4271C23.6919 15 24.8168 15 27.0666 15L31.6666 15M21.6666 5C22.0835 5 22.292 5 22.4915 5.02689C23.0071 5.09641 23.4958 5.29883 23.9096 5.61429C24.0697 5.73634 24.217 5.88373 24.5118 6.17851L30.4881 12.1548C30.7829 12.4496 30.9303 12.597 31.0524 12.7571C31.3678 13.1708 31.5702 13.6595 31.6398 14.1752C31.6666 14.3747 31.6666 14.5831 31.6666 15M17.9166 18.3333C16.25 18.75 15.4166 19.5833 15 21.25C14.5833 19.5833 13.75 18.75 12.0833 18.3333C13.75 17.9167 14.5833 17.0833 15 15.4167C15.4166 17.0833 16.25 17.9167 17.9166 18.3333ZM27.9166 25.4167C24.5833 26.25 22.9166 27.9167 22.0833 31.25C21.25 27.9167 19.5833 26.25 16.25 25.4167C19.5833 24.5833 21.25 22.9167 22.0833 19.5833C22.9166 22.9167 24.5833 24.5833 27.9166 25.4167Z" stroke="#329EF9" stroke-width="1.5" stroke-linecap="round" stroke-linejoin="round"/>
</svg>
