<svg width="44" height="44" viewBox="0 0 44 44" fill="none" xmlns="http://www.w3.org/2000/svg">
<g clip-path="url(#clip0_403_3100)">
<path d="M44 29.3333V38.4999C44 39.9586 43.4205 41.3576 42.3891 42.389C41.3576 43.4205 39.9587 43.9999 38.5 43.9999H29.3333C26.7613 43.9973 24.2353 43.3183 22.0085 42.0312C19.7818 40.7441 17.9327 38.894 16.6467 36.6666C18.0288 36.6567 19.4062 36.5043 20.757 36.2119C21.7858 37.4983 23.0908 38.5366 24.5754 39.2501C26.0601 39.9635 27.6862 40.3337 29.3333 40.3333H38.5C38.9862 40.3333 39.4525 40.1401 39.7964 39.7963C40.1402 39.4525 40.3333 38.9862 40.3333 38.4999V29.3333C40.3329 27.6855 39.9616 26.059 39.2468 24.5744C38.5321 23.0897 37.4924 21.785 36.2047 20.7569C36.4995 19.4063 36.6544 18.0289 36.6667 16.6466C38.8941 17.9326 40.7441 19.7817 42.0313 22.0084C43.3184 24.2352 43.9974 26.7613 44 29.3333ZM32.9578 17.6934C33.1293 15.3314 32.7903 12.9602 31.9639 10.7409C31.1375 8.52153 29.843 6.5061 28.1684 4.83152C26.4938 3.15694 24.4784 1.86246 22.2591 1.03604C20.0397 0.209618 17.6685 -0.129379 15.3065 0.0420851C11.1208 0.520094 7.25436 2.51191 4.43516 5.64245C1.61595 8.77299 0.0385498 12.8262 0 17.0389L0 26.2789C0 30.9209 2.76283 32.9999 5.5 32.9999H15.95C20.1645 32.9636 24.2202 31.3873 27.3529 28.5679C30.4857 25.7485 32.4792 21.8808 32.9578 17.6934V17.6934ZM25.575 7.42675C26.8765 8.73117 27.8827 10.3 28.5254 12.0269C29.1681 13.7539 29.4324 15.5988 29.3003 17.4368C28.909 20.7068 27.3359 23.7211 24.8771 25.9121C22.4183 28.1032 19.2434 29.3199 15.95 29.3333H5.5C3.79867 29.3333 3.66667 26.9958 3.66667 26.2789V17.0389C3.68195 13.7469 4.89985 10.574 7.09118 8.11733C9.28251 5.66061 12.2962 4.08948 15.565 3.69959C15.8693 3.67759 16.1737 3.66659 16.478 3.66659C18.167 3.66501 19.8397 3.99629 21.4007 4.64147C22.9616 5.28666 24.38 6.23312 25.575 7.42675Z" fill="#329EF9"/>
</g>
<defs>
<clipPath id="clip0_403_3100">
<rect width="44" height="44" fill="white"/>
</clipPath>
</defs>
</svg>
