<svg width="1250" height="1068" viewBox="0 0 1250 1068" fill="none" xmlns="http://www.w3.org/2000/svg">
<path d="M107.335 457V420.636H121.682C124.44 420.636 126.79 421.163 128.731 422.217C130.672 423.258 132.152 424.708 133.17 426.567C134.2 428.413 134.715 430.544 134.715 432.959C134.715 435.374 134.194 437.504 133.152 439.351C132.11 441.197 130.601 442.636 128.624 443.665C126.659 444.695 124.28 445.21 121.487 445.21H112.342V439.049H120.244C121.723 439.049 122.943 438.795 123.901 438.286C124.872 437.765 125.594 437.049 126.068 436.137C126.553 435.214 126.796 434.154 126.796 432.959C126.796 431.751 126.553 430.698 126.068 429.798C125.594 428.887 124.872 428.183 123.901 427.685C122.931 427.176 121.7 426.922 120.208 426.922H115.024V457H107.335ZM139.566 457V429.727H146.899V434.486H147.184C147.681 432.793 148.515 431.515 149.687 430.651C150.859 429.775 152.208 429.337 153.735 429.337C154.114 429.337 154.523 429.36 154.96 429.408C155.398 429.455 155.783 429.52 156.115 429.603V436.315C155.76 436.208 155.268 436.113 154.641 436.031C154.014 435.948 153.439 435.906 152.919 435.906C151.806 435.906 150.812 436.149 149.936 436.634C149.072 437.108 148.385 437.771 147.876 438.623C147.379 439.475 147.13 440.458 147.13 441.57V457H139.566ZM167.021 457.515C165.281 457.515 163.73 457.213 162.369 456.609C161.008 455.994 159.931 455.088 159.138 453.893C158.356 452.685 157.966 451.182 157.966 449.383C157.966 447.868 158.244 446.595 158.8 445.565C159.357 444.536 160.114 443.707 161.073 443.08C162.032 442.452 163.121 441.979 164.34 441.659C165.571 441.339 166.861 441.115 168.211 440.984C169.797 440.819 171.075 440.665 172.046 440.523C173.017 440.369 173.721 440.144 174.159 439.848C174.597 439.552 174.816 439.114 174.816 438.534V438.428C174.816 437.303 174.461 436.433 173.75 435.817C173.052 435.202 172.058 434.894 170.767 434.894C169.406 434.894 168.323 435.196 167.518 435.8C166.713 436.392 166.181 437.137 165.92 438.037L158.924 437.469C159.28 435.812 159.978 434.379 161.02 433.172C162.061 431.953 163.405 431.018 165.05 430.366C166.707 429.704 168.625 429.372 170.803 429.372C172.318 429.372 173.768 429.55 175.153 429.905C176.55 430.26 177.787 430.81 178.864 431.556C179.953 432.302 180.811 433.261 181.439 434.433C182.066 435.593 182.38 436.983 182.38 438.605V457H175.206V453.218H174.993C174.555 454.07 173.969 454.822 173.236 455.473C172.502 456.112 171.62 456.615 170.59 456.982C169.56 457.337 168.37 457.515 167.021 457.515ZM169.187 452.295C170.3 452.295 171.282 452.076 172.135 451.638C172.987 451.188 173.656 450.584 174.141 449.827C174.626 449.069 174.869 448.211 174.869 447.252V444.358C174.632 444.512 174.307 444.654 173.892 444.784C173.49 444.902 173.034 445.015 172.525 445.121C172.016 445.216 171.507 445.305 170.998 445.388C170.489 445.459 170.028 445.524 169.613 445.583C168.726 445.713 167.95 445.92 167.287 446.205C166.624 446.489 166.11 446.873 165.743 447.359C165.376 447.832 165.192 448.424 165.192 449.134C165.192 450.164 165.565 450.951 166.311 451.496C167.068 452.028 168.027 452.295 169.187 452.295ZM212.143 457.533C209.349 457.533 206.946 456.941 204.934 455.757C202.933 454.562 201.395 452.904 200.317 450.786C199.252 448.667 198.719 446.228 198.719 443.47C198.719 440.677 199.258 438.226 200.335 436.119C201.424 434 202.969 432.349 204.969 431.165C206.97 429.97 209.349 429.372 212.107 429.372C214.486 429.372 216.57 429.804 218.357 430.668C220.145 431.532 221.559 432.746 222.601 434.308C223.642 435.871 224.217 437.705 224.323 439.812H217.185C216.984 438.451 216.451 437.356 215.587 436.528C214.735 435.687 213.616 435.267 212.231 435.267C211.06 435.267 210.036 435.587 209.16 436.226C208.296 436.853 207.621 437.771 207.136 438.978C206.65 440.185 206.408 441.647 206.408 443.364C206.408 445.104 206.644 446.583 207.118 447.803C207.603 449.022 208.284 449.951 209.16 450.59C210.036 451.229 211.06 451.549 212.231 451.549C213.096 451.549 213.871 451.371 214.557 451.016C215.256 450.661 215.83 450.146 216.28 449.472C216.741 448.785 217.043 447.962 217.185 447.004H224.323C224.205 449.087 223.637 450.922 222.619 452.508C221.612 454.082 220.222 455.313 218.446 456.201C216.67 457.089 214.569 457.533 212.143 457.533ZM241.488 457.533C238.73 457.533 236.345 456.947 234.333 455.775C232.332 454.591 230.788 452.946 229.699 450.839C228.61 448.72 228.065 446.264 228.065 443.47C228.065 440.653 228.61 438.191 229.699 436.084C230.788 433.965 232.332 432.32 234.333 431.148C236.345 429.964 238.73 429.372 241.488 429.372C244.246 429.372 246.626 429.964 248.626 431.148C250.638 432.32 252.189 433.965 253.278 436.084C254.367 438.191 254.912 440.653 254.912 443.47C254.912 446.264 254.367 448.72 253.278 450.839C252.189 452.946 250.638 454.591 248.626 455.775C246.626 456.947 244.246 457.533 241.488 457.533ZM241.524 451.673C242.779 451.673 243.826 451.318 244.667 450.608C245.507 449.886 246.14 448.903 246.566 447.661C247.004 446.418 247.223 445.003 247.223 443.417C247.223 441.831 247.004 440.416 246.566 439.173C246.14 437.93 245.507 436.948 244.667 436.226C243.826 435.504 242.779 435.143 241.524 435.143C240.257 435.143 239.192 435.504 238.328 436.226C237.476 436.948 236.83 437.93 236.392 439.173C235.966 440.416 235.753 441.831 235.753 443.417C235.753 445.003 235.966 446.418 236.392 447.661C236.83 448.903 237.476 449.886 238.328 450.608C239.192 451.318 240.257 451.673 241.524 451.673ZM259.83 457V429.727H267.039V434.539H267.358C267.927 432.941 268.874 431.68 270.199 430.757C271.525 429.834 273.111 429.372 274.958 429.372C276.828 429.372 278.42 429.84 279.734 430.775C281.048 431.698 281.924 432.953 282.362 434.539H282.646C283.202 432.977 284.209 431.728 285.665 430.793C287.132 429.846 288.866 429.372 290.867 429.372C293.412 429.372 295.477 430.183 297.064 431.805C298.662 433.415 299.461 435.699 299.461 438.658V457H291.915V440.15C291.915 438.635 291.512 437.498 290.707 436.741C289.902 435.983 288.896 435.604 287.689 435.604C286.316 435.604 285.244 436.042 284.475 436.918C283.705 437.782 283.321 438.925 283.321 440.345V457H275.988V439.99C275.988 438.652 275.603 437.587 274.834 436.794C274.076 436.001 273.076 435.604 271.833 435.604C270.992 435.604 270.235 435.817 269.56 436.244C268.897 436.658 268.37 437.244 267.98 438.001C267.589 438.747 267.394 439.623 267.394 440.629V457H259.83ZM317.864 457.533C315.059 457.533 312.644 456.964 310.62 455.828C308.608 454.68 307.057 453.058 305.968 450.963C304.879 448.856 304.335 446.364 304.335 443.488C304.335 440.683 304.879 438.22 305.968 436.102C307.057 433.983 308.59 432.331 310.567 431.148C312.555 429.964 314.887 429.372 317.563 429.372C319.362 429.372 321.037 429.662 322.587 430.242C324.15 430.81 325.511 431.669 326.671 432.817C327.843 433.965 328.755 435.409 329.406 437.149C330.057 438.877 330.382 440.902 330.382 443.222V445.299H307.353V440.612H323.262C323.262 439.522 323.025 438.558 322.552 437.717C322.078 436.877 321.421 436.22 320.581 435.746C319.752 435.261 318.788 435.018 317.687 435.018C316.539 435.018 315.521 435.285 314.633 435.817C313.757 436.338 313.07 437.043 312.573 437.93C312.076 438.806 311.822 439.783 311.81 440.86V445.317C311.81 446.666 312.058 447.832 312.555 448.815C313.064 449.797 313.781 450.555 314.704 451.087C315.627 451.62 316.722 451.886 317.989 451.886C318.829 451.886 319.599 451.768 320.297 451.531C320.995 451.295 321.593 450.939 322.09 450.466C322.587 449.992 322.966 449.412 323.227 448.726L330.222 449.188C329.867 450.868 329.139 452.336 328.038 453.591C326.949 454.834 325.541 455.804 323.813 456.503C322.096 457.189 320.113 457.533 317.864 457.533ZM347.641 457.533C344.847 457.533 342.444 456.941 340.432 455.757C338.431 454.562 336.893 452.904 335.815 450.786C334.75 448.667 334.217 446.228 334.217 443.47C334.217 440.677 334.756 438.226 335.833 436.119C336.922 434 338.467 432.349 340.467 431.165C342.468 429.97 344.847 429.372 347.605 429.372C349.984 429.372 352.068 429.804 353.855 430.668C355.643 431.532 357.057 432.746 358.099 434.308C359.14 435.871 359.715 437.705 359.821 439.812H352.683C352.482 438.451 351.949 437.356 351.085 436.528C350.233 435.687 349.114 435.267 347.729 435.267C346.558 435.267 345.534 435.587 344.658 436.226C343.794 436.853 343.119 437.771 342.634 438.978C342.148 440.185 341.906 441.647 341.906 443.364C341.906 445.104 342.142 446.583 342.616 447.803C343.101 449.022 343.782 449.951 344.658 450.59C345.534 451.229 346.558 451.549 347.729 451.549C348.594 451.549 349.369 451.371 350.055 451.016C350.754 450.661 351.328 450.146 351.778 449.472C352.239 448.785 352.541 447.962 352.683 447.004H359.821C359.703 449.087 359.135 450.922 358.117 452.508C357.11 454.082 355.72 455.313 353.944 456.201C352.168 457.089 350.067 457.533 347.641 457.533ZM345.865 456.858H349.345L349.061 458.403C350.28 458.592 351.275 459.048 352.044 459.77C352.825 460.492 353.222 461.474 353.234 462.717C353.246 464.481 352.429 465.884 350.783 466.925C349.138 467.979 346.83 468.506 343.859 468.506L343.788 465.132C345.279 465.132 346.445 464.949 347.286 464.582C348.138 464.227 348.582 463.67 348.617 462.913C348.641 462.191 348.363 461.64 347.783 461.261C347.203 460.883 346.297 460.616 345.066 460.462L345.865 456.858ZM372.441 457.515C370.701 457.515 369.15 457.213 367.789 456.609C366.428 455.994 365.351 455.088 364.557 453.893C363.776 452.685 363.386 451.182 363.386 449.383C363.386 447.868 363.664 446.595 364.22 445.565C364.776 444.536 365.534 443.707 366.493 443.08C367.452 442.452 368.541 441.979 369.76 441.659C370.991 441.339 372.281 441.115 373.631 440.984C375.217 440.819 376.495 440.665 377.466 440.523C378.436 440.369 379.141 440.144 379.579 439.848C380.017 439.552 380.236 439.114 380.236 438.534V438.428C380.236 437.303 379.881 436.433 379.17 435.817C378.472 435.202 377.478 434.894 376.187 434.894C374.826 434.894 373.743 435.196 372.938 435.8C372.133 436.392 371.601 437.137 371.34 438.037L364.344 437.469C364.699 435.812 365.398 434.379 366.44 433.172C367.481 431.953 368.825 431.018 370.47 430.366C372.127 429.704 374.045 429.372 376.223 429.372C377.738 429.372 379.188 429.55 380.573 429.905C381.97 430.26 383.207 430.81 384.284 431.556C385.373 432.302 386.231 433.261 386.859 434.433C387.486 435.593 387.8 436.983 387.8 438.605V457H380.626V453.218H380.413C379.975 454.07 379.389 454.822 378.655 455.473C377.922 456.112 377.04 456.615 376.01 456.982C374.98 457.337 373.79 457.515 372.441 457.515ZM374.607 452.295C375.72 452.295 376.702 452.076 377.555 451.638C378.407 451.188 379.076 450.584 379.561 449.827C380.046 449.069 380.289 448.211 380.289 447.252V444.358C380.052 444.512 379.727 444.654 379.312 444.784C378.91 444.902 378.454 445.015 377.945 445.121C377.436 445.216 376.927 445.305 376.418 445.388C375.909 445.459 375.448 445.524 375.033 445.583C374.146 445.713 373.37 445.92 372.707 446.205C372.044 446.489 371.53 446.873 371.163 447.359C370.796 447.832 370.612 448.424 370.612 449.134C370.612 450.164 370.985 450.951 371.731 451.496C372.488 452.028 373.447 452.295 374.607 452.295ZM393.668 457V429.727H401.001V434.486H401.285C401.782 432.793 402.617 431.515 403.789 430.651C404.96 429.775 406.31 429.337 407.837 429.337C408.216 429.337 408.624 429.36 409.062 429.408C409.5 429.455 409.885 429.52 410.216 429.603V436.315C409.861 436.208 409.37 436.113 408.742 436.031C408.115 435.948 407.541 435.906 407.02 435.906C405.907 435.906 404.913 436.149 404.037 436.634C403.173 437.108 402.487 437.771 401.978 438.623C401.48 439.475 401.232 440.458 401.232 441.57V457H393.668ZM419.223 452.028L419.027 453.982C418.874 455.544 418.578 457.101 418.14 458.651C417.714 460.214 417.264 461.628 416.79 462.895C416.329 464.161 415.956 465.156 415.672 465.878H410.771C410.949 465.179 411.191 464.203 411.499 462.948C411.807 461.705 412.097 460.308 412.369 458.758C412.641 457.207 412.813 455.627 412.884 454.017L412.973 452.028H419.223ZM436.002 457V429.727H443.211V434.539H443.53C444.098 432.941 445.045 431.68 446.371 430.757C447.697 429.834 449.283 429.372 451.13 429.372C453 429.372 454.592 429.84 455.906 430.775C457.22 431.698 458.096 432.953 458.534 434.539H458.818C459.374 432.977 460.38 431.728 461.836 430.793C463.304 429.846 465.038 429.372 467.039 429.372C469.584 429.372 471.649 430.183 473.236 431.805C474.834 433.415 475.633 435.699 475.633 438.658V457H468.086V440.15C468.086 438.635 467.684 437.498 466.879 436.741C466.074 435.983 465.068 435.604 463.861 435.604C462.487 435.604 461.416 436.042 460.647 436.918C459.877 437.782 459.493 438.925 459.493 440.345V457H452.16V439.99C452.16 438.652 451.775 437.587 451.005 436.794C450.248 436.001 449.248 435.604 448.005 435.604C447.164 435.604 446.407 435.817 445.732 436.244C445.069 436.658 444.542 437.244 444.152 438.001C443.761 438.747 443.566 439.623 443.566 440.629V457H436.002ZM494.036 457.533C491.231 457.533 488.816 456.964 486.792 455.828C484.78 454.68 483.229 453.058 482.14 450.963C481.051 448.856 480.506 446.364 480.506 443.488C480.506 440.683 481.051 438.22 482.14 436.102C483.229 433.983 484.762 432.331 486.739 431.148C488.727 429.964 491.059 429.372 493.734 429.372C495.534 429.372 497.209 429.662 498.759 430.242C500.322 430.81 501.683 431.669 502.843 432.817C504.015 433.965 504.926 435.409 505.578 437.149C506.229 438.877 506.554 440.902 506.554 443.222V445.299H483.525V440.612H499.434C499.434 439.522 499.197 438.558 498.724 437.717C498.25 436.877 497.593 436.22 496.753 435.746C495.924 435.261 494.96 435.018 493.859 435.018C492.711 435.018 491.693 435.285 490.805 435.817C489.929 436.338 489.242 437.043 488.745 437.93C488.248 438.806 487.993 439.783 487.982 440.86V445.317C487.982 446.666 488.23 447.832 488.727 448.815C489.236 449.797 489.953 450.555 490.876 451.087C491.799 451.62 492.894 451.886 494.161 451.886C495.001 451.886 495.77 451.768 496.469 451.531C497.167 451.295 497.765 450.939 498.262 450.466C498.759 449.992 499.138 449.412 499.399 448.726L506.394 449.188C506.039 450.868 505.311 452.336 504.21 453.591C503.121 454.834 501.713 455.804 499.984 456.503C498.268 457.189 496.285 457.533 494.036 457.533ZM533.112 457.444C531.041 457.444 529.164 456.911 527.484 455.846C525.815 454.769 524.489 453.188 523.506 451.105C522.536 449.01 522.05 446.441 522.05 443.399C522.05 440.274 522.553 437.676 523.56 435.604C524.566 433.521 525.903 431.964 527.572 430.935C529.253 429.893 531.094 429.372 533.094 429.372C534.621 429.372 535.894 429.633 536.912 430.153C537.942 430.662 538.77 431.302 539.398 432.071C540.037 432.829 540.522 433.574 540.854 434.308H541.084V420.636H548.631V457H541.173V452.632H540.854C540.498 453.39 539.995 454.141 539.344 454.887C538.705 455.621 537.871 456.231 536.841 456.716C535.823 457.201 534.58 457.444 533.112 457.444ZM535.509 451.425C536.728 451.425 537.758 451.093 538.599 450.43C539.451 449.756 540.102 448.815 540.552 447.607C541.013 446.4 541.244 444.985 541.244 443.364C541.244 441.742 541.019 440.333 540.57 439.138C540.12 437.942 539.469 437.019 538.616 436.368C537.764 435.717 536.728 435.391 535.509 435.391C534.266 435.391 533.219 435.729 532.366 436.403C531.514 437.078 530.869 438.013 530.431 439.209C529.993 440.404 529.774 441.789 529.774 443.364C529.774 444.95 529.993 446.353 530.431 447.572C530.881 448.779 531.526 449.726 532.366 450.413C533.219 451.087 534.266 451.425 535.509 451.425ZM554.85 457V429.727H562.413V457H554.85ZM558.649 426.212C557.525 426.212 556.56 425.839 555.755 425.093C554.962 424.335 554.565 423.43 554.565 422.376C554.565 421.335 554.962 420.441 555.755 419.695C556.56 418.938 557.525 418.559 558.649 418.559C559.774 418.559 560.733 418.938 561.526 419.695C562.331 420.441 562.733 421.335 562.733 422.376C562.733 423.43 562.331 424.335 561.526 425.093C560.733 425.839 559.774 426.212 558.649 426.212ZM580.759 467.795C578.309 467.795 576.208 467.458 574.456 466.783C572.716 466.121 571.331 465.215 570.301 464.067C569.272 462.919 568.603 461.628 568.295 460.196L575.291 459.255C575.504 459.799 575.841 460.308 576.303 460.782C576.764 461.255 577.374 461.634 578.132 461.918C578.901 462.214 579.836 462.362 580.937 462.362C582.582 462.362 583.938 461.96 585.003 461.155C586.08 460.362 586.619 459.03 586.619 457.16V452.17H586.299C585.968 452.928 585.471 453.644 584.808 454.319C584.145 454.994 583.293 455.544 582.251 455.97C581.209 456.396 579.966 456.609 578.522 456.609C576.474 456.609 574.61 456.136 572.929 455.189C571.26 454.23 569.929 452.768 568.934 450.803C567.952 448.826 567.46 446.329 567.46 443.31C567.46 440.221 567.964 437.64 568.97 435.569C569.976 433.497 571.313 431.947 572.983 430.917C574.663 429.887 576.504 429.372 578.505 429.372C580.032 429.372 581.31 429.633 582.34 430.153C583.37 430.662 584.198 431.302 584.826 432.071C585.465 432.829 585.956 433.574 586.299 434.308H586.583V429.727H594.094V457.266C594.094 459.586 593.526 461.528 592.389 463.09C591.253 464.653 589.679 465.825 587.666 466.606C585.666 467.399 583.364 467.795 580.759 467.795ZM580.919 450.928C582.139 450.928 583.168 450.626 584.009 450.022C584.861 449.406 585.512 448.531 585.962 447.394C586.424 446.246 586.654 444.873 586.654 443.275C586.654 441.677 586.429 440.292 585.98 439.12C585.53 437.936 584.879 437.019 584.027 436.368C583.174 435.717 582.139 435.391 580.919 435.391C579.676 435.391 578.629 435.729 577.777 436.403C576.924 437.066 576.279 437.99 575.841 439.173C575.403 440.357 575.184 441.724 575.184 443.275C575.184 444.849 575.403 446.21 575.841 447.359C576.291 448.495 576.936 449.377 577.777 450.004C578.629 450.62 579.676 450.928 580.919 450.928ZM607.89 457.515C606.15 457.515 604.599 457.213 603.238 456.609C601.877 455.994 600.8 455.088 600.007 453.893C599.225 452.685 598.835 451.182 598.835 449.383C598.835 447.868 599.113 446.595 599.669 445.565C600.226 444.536 600.983 443.707 601.942 443.08C602.901 442.452 603.99 441.979 605.209 441.659C606.44 441.339 607.73 441.115 609.08 440.984C610.666 440.819 611.944 440.665 612.915 440.523C613.886 440.369 614.59 440.144 615.028 439.848C615.466 439.552 615.685 439.114 615.685 438.534V438.428C615.685 437.303 615.33 436.433 614.62 435.817C613.921 435.202 612.927 434.894 611.637 434.894C610.275 434.894 609.192 435.196 608.387 435.8C607.582 436.392 607.05 437.137 606.789 438.037L599.794 437.469C600.149 435.812 600.847 434.379 601.889 433.172C602.93 431.953 604.274 431.018 605.919 430.366C607.576 429.704 609.494 429.372 611.672 429.372C613.187 429.372 614.637 429.55 616.022 429.905C617.419 430.26 618.656 430.81 619.733 431.556C620.822 432.302 621.68 433.261 622.308 434.433C622.935 435.593 623.249 436.983 623.249 438.605V457H616.076V453.218H615.862C615.425 454.07 614.839 454.822 614.105 455.473C613.371 456.112 612.489 456.615 611.459 456.982C610.429 457.337 609.24 457.515 607.89 457.515ZM610.056 452.295C611.169 452.295 612.152 452.076 613.004 451.638C613.856 451.188 614.525 450.584 615.01 449.827C615.496 449.069 615.738 448.211 615.738 447.252V444.358C615.501 444.512 615.176 444.654 614.762 444.784C614.359 444.902 613.903 445.015 613.394 445.121C612.885 445.216 612.376 445.305 611.867 445.388C611.358 445.459 610.897 445.524 610.483 445.583C609.595 445.713 608.819 445.92 608.157 446.205C607.494 446.489 606.979 446.873 606.612 447.359C606.245 447.832 606.061 448.424 606.061 449.134C606.061 450.164 606.434 450.951 607.18 451.496C607.938 452.028 608.896 452.295 610.056 452.295ZM663.381 437.504L656.456 437.93C656.338 437.339 656.084 436.806 655.693 436.332C655.302 435.847 654.787 435.462 654.148 435.178C653.521 434.882 652.769 434.734 651.893 434.734C650.721 434.734 649.733 434.983 648.928 435.48C648.123 435.965 647.721 436.616 647.721 437.433C647.721 438.084 647.981 438.635 648.502 439.085C649.023 439.534 649.916 439.895 651.183 440.168L656.119 441.162C658.771 441.706 660.747 442.582 662.049 443.79C663.352 444.997 664.003 446.583 664.003 448.548C664.003 450.336 663.476 451.904 662.422 453.254C661.381 454.603 659.948 455.656 658.125 456.414C656.314 457.16 654.225 457.533 651.858 457.533C648.247 457.533 645.371 456.781 643.228 455.278C641.098 453.763 639.849 451.703 639.482 449.099L646.922 448.708C647.147 449.809 647.691 450.649 648.555 451.229C649.419 451.798 650.526 452.082 651.875 452.082C653.201 452.082 654.267 451.827 655.071 451.318C655.888 450.797 656.303 450.129 656.314 449.312C656.303 448.625 656.013 448.063 655.444 447.625C654.876 447.175 654 446.832 652.816 446.595L648.093 445.654C645.43 445.121 643.447 444.198 642.145 442.884C640.855 441.57 640.21 439.895 640.21 437.859C640.21 436.107 640.683 434.598 641.63 433.332C642.589 432.065 643.933 431.089 645.661 430.402C647.401 429.715 649.437 429.372 651.769 429.372C655.214 429.372 657.924 430.1 659.901 431.556C661.89 433.012 663.05 434.995 663.381 437.504ZM681.195 457.533C678.389 457.533 675.974 456.964 673.95 455.828C671.938 454.68 670.387 453.058 669.298 450.963C668.209 448.856 667.665 446.364 667.665 443.488C667.665 440.683 668.209 438.22 669.298 436.102C670.387 433.983 671.92 432.331 673.897 431.148C675.886 429.964 678.217 429.372 680.893 429.372C682.692 429.372 684.367 429.662 685.918 430.242C687.48 430.81 688.841 431.669 690.001 432.817C691.173 433.965 692.085 435.409 692.736 437.149C693.387 438.877 693.712 440.902 693.712 443.222V445.299H670.683V440.612H686.592C686.592 439.522 686.355 438.558 685.882 437.717C685.409 436.877 684.752 436.22 683.911 435.746C683.083 435.261 682.118 435.018 681.017 435.018C679.869 435.018 678.851 435.285 677.963 435.817C677.087 436.338 676.4 437.043 675.903 437.93C675.406 438.806 675.152 439.783 675.14 440.86V445.317C675.14 446.666 675.388 447.832 675.886 448.815C676.395 449.797 677.111 450.555 678.034 451.087C678.957 451.62 680.052 451.886 681.319 451.886C682.159 451.886 682.929 451.768 683.627 451.531C684.325 451.295 684.923 450.939 685.42 450.466C685.918 449.992 686.296 449.412 686.557 448.726L693.552 449.188C693.197 450.868 692.469 452.336 691.369 453.591C690.28 454.834 688.871 455.804 687.143 456.503C685.426 457.189 683.444 457.533 681.195 457.533ZM716.138 445.388V429.727H723.702V457H716.44V452.046H716.155C715.54 453.644 714.516 454.929 713.084 455.899C711.663 456.87 709.929 457.355 707.881 457.355C706.058 457.355 704.454 456.941 703.07 456.112C701.685 455.284 700.601 454.106 699.82 452.579C699.051 451.052 698.66 449.223 698.648 447.092V429.727H706.212V445.743C706.224 447.353 706.656 448.625 707.508 449.56C708.361 450.496 709.503 450.963 710.935 450.963C711.847 450.963 712.699 450.756 713.492 450.342C714.285 449.915 714.924 449.288 715.41 448.46C715.907 447.631 716.15 446.607 716.138 445.388ZM748.888 441.233V457H741.324V429.727H748.533V434.539H748.853C749.456 432.953 750.468 431.698 751.889 430.775C753.309 429.84 755.032 429.372 757.056 429.372C758.95 429.372 760.601 429.786 762.009 430.615C763.418 431.444 764.513 432.627 765.294 434.166C766.076 435.693 766.466 437.516 766.466 439.635V457H758.902V440.984C758.914 439.315 758.488 438.013 757.624 437.078C756.76 436.131 755.57 435.658 754.055 435.658C753.037 435.658 752.137 435.877 751.356 436.315C750.587 436.753 749.983 437.392 749.545 438.232C749.119 439.061 748.9 440.061 748.888 441.233ZM784.75 457.533C781.992 457.533 779.607 456.947 777.595 455.775C775.594 454.591 774.049 452.946 772.96 450.839C771.871 448.72 771.327 446.264 771.327 443.47C771.327 440.653 771.871 438.191 772.96 436.084C774.049 433.965 775.594 432.32 777.595 431.148C779.607 429.964 781.992 429.372 784.75 429.372C787.508 429.372 789.887 429.964 791.888 431.148C793.9 432.32 795.451 433.965 796.54 436.084C797.629 438.191 798.173 440.653 798.173 443.47C798.173 446.264 797.629 448.72 796.54 450.839C795.451 452.946 793.9 454.591 791.888 455.775C789.887 456.947 787.508 457.533 784.75 457.533ZM784.786 451.673C786.04 451.673 787.088 451.318 787.928 450.608C788.769 449.886 789.402 448.903 789.828 447.661C790.266 446.418 790.485 445.003 790.485 443.417C790.485 441.831 790.266 440.416 789.828 439.173C789.402 437.93 788.769 436.948 787.928 436.226C787.088 435.504 786.04 435.143 784.786 435.143C783.519 435.143 782.454 435.504 781.59 436.226C780.737 436.948 780.092 437.93 779.654 439.173C779.228 440.416 779.015 441.831 779.015 443.417C779.015 445.003 779.228 446.418 779.654 447.661C780.092 448.903 780.737 449.886 781.59 450.608C782.454 451.318 783.519 451.673 784.786 451.673ZM803.092 457V429.727H810.301V434.539H810.62C811.188 432.941 812.135 431.68 813.461 430.757C814.787 429.834 816.373 429.372 818.22 429.372C820.09 429.372 821.682 429.84 822.996 430.775C824.31 431.698 825.186 432.953 825.624 434.539H825.908C826.464 432.977 827.47 431.728 828.926 430.793C830.394 429.846 832.128 429.372 834.129 429.372C836.674 429.372 838.739 430.183 840.325 431.805C841.923 433.415 842.722 435.699 842.722 438.658V457H835.176V440.15C835.176 438.635 834.774 437.498 833.969 436.741C833.164 435.983 832.158 435.604 830.95 435.604C829.577 435.604 828.506 436.042 827.737 436.918C826.967 437.782 826.582 438.925 826.582 440.345V457H819.249V439.99C819.249 438.652 818.865 437.587 818.095 436.794C817.338 436.001 816.337 435.604 815.095 435.604C814.254 435.604 813.497 435.817 812.822 436.244C812.159 436.658 811.632 437.244 811.242 438.001C810.851 438.747 810.656 439.623 810.656 440.629V457H803.092ZM861.126 457.533C858.321 457.533 855.906 456.964 853.882 455.828C851.87 454.68 850.319 453.058 849.23 450.963C848.141 448.856 847.596 446.364 847.596 443.488C847.596 440.683 848.141 438.22 849.23 436.102C850.319 433.983 851.852 432.331 853.829 431.148C855.817 429.964 858.149 429.372 860.824 429.372C862.624 429.372 864.299 429.662 865.849 430.242C867.412 430.81 868.773 431.669 869.933 432.817C871.105 433.965 872.016 435.409 872.667 437.149C873.318 438.877 873.644 440.902 873.644 443.222V445.299H850.615V440.612H866.524C866.524 439.522 866.287 438.558 865.814 437.717C865.34 436.877 864.683 436.22 863.843 435.746C863.014 435.261 862.049 435.018 860.949 435.018C859.8 435.018 858.782 435.285 857.895 435.817C857.019 436.338 856.332 437.043 855.835 437.93C855.338 438.806 855.083 439.783 855.071 440.86V445.317C855.071 446.666 855.32 447.832 855.817 448.815C856.326 449.797 857.042 450.555 857.966 451.087C858.889 451.62 859.984 451.886 861.25 451.886C862.091 451.886 862.86 451.768 863.559 451.531C864.257 451.295 864.855 450.939 865.352 450.466C865.849 449.992 866.228 449.412 866.488 448.726L873.484 449.188C873.129 450.868 872.401 452.336 871.3 453.591C870.211 454.834 868.803 455.804 867.074 456.503C865.358 457.189 863.375 457.533 861.126 457.533ZM902.475 457.533C899.681 457.533 897.278 456.941 895.266 455.757C893.265 454.562 891.727 452.904 890.649 450.786C889.584 448.667 889.051 446.228 889.051 443.47C889.051 440.677 889.59 438.226 890.667 436.119C891.756 434 893.301 432.349 895.301 431.165C897.302 429.97 899.681 429.372 902.439 429.372C904.818 429.372 906.902 429.804 908.689 430.668C910.477 431.532 911.891 432.746 912.933 434.308C913.974 435.871 914.549 437.705 914.655 439.812H907.517C907.316 438.451 906.783 437.356 905.919 436.528C905.067 435.687 903.948 435.267 902.563 435.267C901.392 435.267 900.368 435.587 899.492 436.226C898.628 436.853 897.953 437.771 897.468 438.978C896.982 440.185 896.74 441.647 896.74 443.364C896.74 445.104 896.976 446.583 897.45 447.803C897.935 449.022 898.616 449.951 899.492 450.59C900.368 451.229 901.392 451.549 902.563 451.549C903.428 451.549 904.203 451.371 904.889 451.016C905.588 450.661 906.162 450.146 906.612 449.472C907.073 448.785 907.375 447.962 907.517 447.004H914.655C914.537 449.087 913.969 450.922 912.951 452.508C911.944 454.082 910.554 455.313 908.778 456.201C907.002 457.089 904.901 457.533 902.475 457.533ZM931.82 457.533C929.062 457.533 926.677 456.947 924.665 455.775C922.664 454.591 921.12 452.946 920.031 450.839C918.942 448.72 918.397 446.264 918.397 443.47C918.397 440.653 918.942 438.191 920.031 436.084C921.12 433.965 922.664 432.32 924.665 431.148C926.677 429.964 929.062 429.372 931.82 429.372C934.578 429.372 936.958 429.964 938.958 431.148C940.97 432.32 942.521 433.965 943.61 436.084C944.699 438.191 945.244 440.653 945.244 443.47C945.244 446.264 944.699 448.72 943.61 450.839C942.521 452.946 940.97 454.591 938.958 455.775C936.958 456.947 934.578 457.533 931.82 457.533ZM931.856 451.673C933.111 451.673 934.158 451.318 934.999 450.608C935.839 449.886 936.472 448.903 936.899 447.661C937.337 446.418 937.555 445.003 937.555 443.417C937.555 441.831 937.337 440.416 936.899 439.173C936.472 437.93 935.839 436.948 934.999 436.226C934.158 435.504 933.111 435.143 931.856 435.143C930.589 435.143 929.524 435.504 928.66 436.226C927.808 436.948 927.162 437.93 926.725 439.173C926.298 440.416 926.085 441.831 926.085 443.417C926.085 445.003 926.298 446.418 926.725 447.661C927.162 448.903 927.808 449.886 928.66 450.608C929.524 451.318 930.589 451.673 931.856 451.673ZM950.162 457V429.727H957.371V434.539H957.69C958.259 432.941 959.206 431.68 960.531 430.757C961.857 429.834 963.443 429.372 965.29 429.372C967.16 429.372 968.752 429.84 970.066 430.775C971.38 431.698 972.256 432.953 972.694 434.539H972.978C973.534 432.977 974.541 431.728 975.997 430.793C977.464 429.846 979.198 429.372 981.199 429.372C983.744 429.372 985.81 430.183 987.396 431.805C988.994 433.415 989.793 435.699 989.793 438.658V457H982.247V440.15C982.247 438.635 981.844 437.498 981.039 436.741C980.234 435.983 979.228 435.604 978.021 435.604C976.648 435.604 975.576 436.042 974.807 436.918C974.037 437.782 973.653 438.925 973.653 440.345V457H966.32V439.99C966.32 438.652 965.935 437.587 965.166 436.794C964.408 436.001 963.408 435.604 962.165 435.604C961.324 435.604 960.567 435.817 959.892 436.244C959.229 436.658 958.703 437.244 958.312 438.001C957.921 438.747 957.726 439.623 957.726 440.629V457H950.162ZM995.767 467.227V429.727H1003.22V434.308H1003.56C1003.89 433.574 1004.37 432.829 1005 432.071C1005.64 431.302 1006.47 430.662 1007.49 430.153C1008.52 429.633 1009.79 429.372 1011.32 429.372C1013.31 429.372 1015.14 429.893 1016.83 430.935C1018.51 431.964 1019.85 433.521 1020.86 435.604C1021.86 437.676 1022.37 440.274 1022.37 443.399C1022.37 446.441 1021.87 449.01 1020.89 451.105C1019.92 453.188 1018.6 454.769 1016.91 455.846C1015.25 456.911 1013.38 457.444 1011.3 457.444C1009.84 457.444 1008.59 457.201 1007.56 456.716C1006.54 456.231 1005.7 455.621 1005.05 454.887C1004.4 454.141 1003.91 453.39 1003.56 452.632H1003.33V467.227H995.767ZM1003.17 443.364C1003.17 444.985 1003.4 446.4 1003.85 447.607C1004.3 448.815 1004.95 449.756 1005.8 450.43C1006.65 451.093 1007.69 451.425 1008.91 451.425C1010.14 451.425 1011.18 451.087 1012.03 450.413C1012.88 449.726 1013.53 448.779 1013.97 447.572C1014.42 446.353 1014.64 444.95 1014.64 443.364C1014.64 441.789 1014.42 440.404 1013.98 439.209C1013.55 438.013 1012.9 437.078 1012.05 436.403C1011.2 435.729 1010.15 435.391 1008.91 435.391C1007.68 435.391 1006.63 435.717 1005.78 436.368C1004.94 437.019 1004.3 437.942 1003.85 439.138C1003.4 440.333 1003.17 441.742 1003.17 443.364ZM1034.97 420.636V457H1027.41V420.636H1034.97ZM1053.46 457.533C1050.65 457.533 1048.24 456.964 1046.22 455.828C1044.2 454.68 1042.65 453.058 1041.56 450.963C1040.47 448.856 1039.93 446.364 1039.93 443.488C1039.93 440.683 1040.47 438.22 1041.56 436.102C1042.65 433.983 1044.19 432.331 1046.16 431.148C1048.15 429.964 1050.48 429.372 1053.16 429.372C1054.96 429.372 1056.63 429.662 1058.18 430.242C1059.75 430.81 1061.11 431.669 1062.27 432.817C1063.44 433.965 1064.35 435.409 1065 437.149C1065.65 438.877 1065.98 440.902 1065.98 443.222V445.299H1042.95V440.612H1058.86C1058.86 439.522 1058.62 438.558 1058.15 437.717C1057.67 436.877 1057.02 436.22 1056.18 435.746C1055.35 435.261 1054.38 435.018 1053.28 435.018C1052.13 435.018 1051.12 435.285 1050.23 435.817C1049.35 436.338 1048.67 437.043 1048.17 437.93C1047.67 438.806 1047.42 439.783 1047.41 440.86V445.317C1047.41 446.666 1047.65 447.832 1048.15 448.815C1048.66 449.797 1049.38 450.555 1050.3 451.087C1051.22 451.62 1052.32 451.886 1053.58 451.886C1054.42 451.886 1055.19 451.768 1055.89 451.531C1056.59 451.295 1057.19 450.939 1057.69 450.466C1058.18 449.992 1058.56 449.412 1058.82 448.726L1065.82 449.188C1065.46 450.868 1064.73 452.336 1063.63 453.591C1062.55 454.834 1061.14 455.804 1059.41 456.503C1057.69 457.189 1055.71 457.533 1053.46 457.533ZM1085.42 429.727V435.409H1069V429.727H1085.42ZM1072.73 423.193H1080.29V448.619C1080.29 449.318 1080.4 449.862 1080.61 450.253C1080.82 450.632 1081.12 450.898 1081.5 451.052C1081.89 451.206 1082.34 451.283 1082.85 451.283C1083.2 451.283 1083.56 451.253 1083.91 451.194C1084.27 451.123 1084.54 451.07 1084.73 451.034L1085.92 456.663C1085.54 456.781 1085.01 456.917 1084.32 457.071C1083.63 457.237 1082.8 457.337 1081.82 457.373C1079.99 457.444 1078.4 457.201 1077.02 456.645C1075.66 456.089 1074.6 455.224 1073.84 454.053C1073.09 452.881 1072.71 451.401 1072.73 449.614V423.193ZM1102.38 457.533C1099.62 457.533 1097.23 456.947 1095.22 455.775C1093.22 454.591 1091.68 452.946 1090.59 450.839C1089.5 448.72 1088.95 446.264 1088.95 443.47C1088.95 440.653 1089.5 438.191 1090.59 436.084C1091.68 433.965 1093.22 432.32 1095.22 431.148C1097.23 429.964 1099.62 429.372 1102.38 429.372C1105.14 429.372 1107.51 429.964 1109.51 431.148C1111.53 432.32 1113.08 433.965 1114.17 436.084C1115.26 438.191 1115.8 440.653 1115.8 443.47C1115.8 446.264 1115.26 448.72 1114.17 450.839C1113.08 452.946 1111.53 454.591 1109.51 455.775C1107.51 456.947 1105.14 457.533 1102.38 457.533ZM1102.41 451.673C1103.67 451.673 1104.71 451.318 1105.56 450.608C1106.4 449.886 1107.03 448.903 1107.46 447.661C1107.89 446.418 1108.11 445.003 1108.11 443.417C1108.11 441.831 1107.89 440.416 1107.46 439.173C1107.03 437.93 1106.4 436.948 1105.56 436.226C1104.71 435.504 1103.67 435.143 1102.41 435.143C1101.15 435.143 1100.08 435.504 1099.22 436.226C1098.36 436.948 1097.72 437.93 1097.28 439.173C1096.86 440.416 1096.64 441.831 1096.64 443.417C1096.64 445.003 1096.86 446.418 1097.28 447.661C1097.72 448.903 1098.36 449.886 1099.22 450.608C1100.08 451.318 1101.15 451.673 1102.41 451.673ZM1127.22 446.098V445.494C1127.23 443.423 1127.41 441.772 1127.77 440.54C1128.13 439.309 1128.67 438.315 1129.37 437.558C1130.06 436.8 1130.9 436.113 1131.89 435.498C1132.62 435.024 1133.28 434.533 1133.86 434.024C1134.44 433.515 1134.9 432.953 1135.24 432.337C1135.59 431.71 1135.76 431.012 1135.76 430.242C1135.76 429.425 1135.56 428.709 1135.17 428.094C1134.78 427.478 1134.25 427.005 1133.59 426.673C1132.94 426.342 1132.22 426.176 1131.43 426.176C1130.66 426.176 1129.93 426.348 1129.24 426.691C1128.55 427.022 1127.99 427.52 1127.55 428.183C1127.12 428.834 1126.88 429.644 1126.84 430.615H1119.6C1119.66 428.248 1120.23 426.295 1121.3 424.756C1122.38 423.205 1123.81 422.051 1125.58 421.293C1127.36 420.524 1129.32 420.139 1131.46 420.139C1133.82 420.139 1135.9 420.53 1137.71 421.311C1139.52 422.08 1140.94 423.199 1141.97 424.667C1143 426.135 1143.52 427.904 1143.52 429.976C1143.52 431.361 1143.29 432.592 1142.82 433.669C1142.37 434.734 1141.74 435.681 1140.92 436.51C1140.11 437.327 1139.14 438.067 1138.03 438.729C1137.1 439.286 1136.33 439.866 1135.72 440.469C1135.13 441.073 1134.69 441.772 1134.39 442.565C1134.11 443.358 1133.96 444.334 1133.95 445.494V446.098H1127.22ZM1130.73 457.462C1129.55 457.462 1128.54 457.047 1127.7 456.219C1126.87 455.378 1126.46 454.372 1126.47 453.2C1126.46 452.04 1126.87 451.046 1127.7 450.217C1128.54 449.389 1129.55 448.974 1130.73 448.974C1131.86 448.974 1132.85 449.389 1133.7 450.217C1134.55 451.046 1134.98 452.04 1134.99 453.2C1134.98 453.982 1134.78 454.698 1134.37 455.349C1133.98 455.988 1133.47 456.503 1132.83 456.893C1132.19 457.272 1131.49 457.462 1130.73 457.462ZM294.331 512V490.182H301.704C303.415 490.182 304.814 490.491 305.901 491.109C306.995 491.719 307.805 492.547 308.33 493.591C308.856 494.635 309.118 495.8 309.118 497.085C309.118 498.371 308.856 499.539 308.33 500.59C307.812 501.641 307.009 502.479 305.922 503.104C304.836 503.722 303.444 504.031 301.746 504.031H296.462V501.688H301.661C302.833 501.688 303.774 501.485 304.484 501.08C305.194 500.675 305.709 500.129 306.029 499.44C306.356 498.744 306.519 497.959 306.519 497.085C306.519 496.212 306.356 495.43 306.029 494.741C305.709 494.053 305.191 493.513 304.474 493.122C303.756 492.724 302.805 492.526 301.618 492.526H296.974V512H294.331ZM319.506 512.341C318.028 512.341 316.732 511.989 315.617 511.286C314.509 510.583 313.643 509.599 313.018 508.335C312.4 507.071 312.091 505.594 312.091 503.903C312.091 502.199 312.4 500.711 313.018 499.44C313.643 498.168 314.509 497.181 315.617 496.478C316.732 495.775 318.028 495.423 319.506 495.423C320.983 495.423 322.275 495.775 323.383 496.478C324.498 497.181 325.365 498.168 325.983 499.44C326.608 500.711 326.92 502.199 326.92 503.903C326.92 505.594 326.608 507.071 325.983 508.335C325.365 509.599 324.498 510.583 323.383 511.286C322.275 511.989 320.983 512.341 319.506 512.341ZM319.506 510.082C320.628 510.082 321.551 509.795 322.275 509.219C323 508.644 323.536 507.888 323.884 506.95C324.232 506.013 324.406 504.997 324.406 503.903C324.406 502.81 324.232 501.79 323.884 500.846C323.536 499.901 323 499.138 322.275 498.555C321.551 497.973 320.628 497.682 319.506 497.682C318.383 497.682 317.46 497.973 316.736 498.555C316.011 499.138 315.475 499.901 315.127 500.846C314.779 501.79 314.605 502.81 314.605 503.903C314.605 504.997 314.779 506.013 315.127 506.95C315.475 507.888 316.011 508.644 316.736 509.219C317.46 509.795 318.383 510.082 319.506 510.082ZM336.937 512.341C335.574 512.341 334.37 511.996 333.326 511.308C332.282 510.612 331.465 509.631 330.875 508.367C330.286 507.096 329.991 505.594 329.991 503.861C329.991 502.142 330.286 500.651 330.875 499.386C331.465 498.122 332.285 497.146 333.336 496.457C334.387 495.768 335.602 495.423 336.98 495.423C338.045 495.423 338.887 495.601 339.505 495.956C340.13 496.304 340.605 496.702 340.932 497.149C341.266 497.589 341.525 497.952 341.71 498.236H341.923V490.182H344.437V512H342.008V509.486H341.71C341.525 509.784 341.262 510.161 340.922 510.615C340.581 511.062 340.094 511.464 339.462 511.819C338.83 512.167 337.988 512.341 336.937 512.341ZM337.278 510.082C338.287 510.082 339.139 509.82 339.835 509.294C340.531 508.761 341.06 508.026 341.422 507.089C341.784 506.144 341.966 505.054 341.966 503.818C341.966 502.597 341.788 501.528 341.433 500.612C341.078 499.688 340.552 498.971 339.856 498.46C339.16 497.941 338.301 497.682 337.278 497.682C336.213 497.682 335.325 497.955 334.615 498.502C333.912 499.042 333.382 499.777 333.027 500.707C332.679 501.631 332.505 502.668 332.505 503.818C332.505 504.983 332.683 506.041 333.038 506.993C333.4 507.937 333.933 508.69 334.636 509.251C335.346 509.805 336.227 510.082 337.278 510.082ZM356.252 512.341C354.675 512.341 353.315 511.993 352.172 511.297C351.035 510.594 350.158 509.614 349.54 508.357C348.929 507.092 348.624 505.622 348.624 503.946C348.624 502.27 348.929 500.793 349.54 499.514C350.158 498.229 351.017 497.227 352.118 496.51C353.226 495.786 354.519 495.423 355.996 495.423C356.848 495.423 357.69 495.565 358.521 495.849C359.352 496.134 360.108 496.595 360.79 497.234C361.472 497.866 362.015 498.705 362.42 499.749C362.825 500.793 363.027 502.078 363.027 503.605V504.67H350.414V502.497H360.471C360.471 501.574 360.286 500.75 359.917 500.026C359.554 499.301 359.036 498.729 358.361 498.31C357.694 497.891 356.905 497.682 355.996 497.682C354.995 497.682 354.128 497.93 353.397 498.428C352.672 498.918 352.115 499.557 351.724 500.345C351.333 501.134 351.138 501.979 351.138 502.881V504.33C351.138 505.565 351.351 506.613 351.777 507.472C352.211 508.325 352.811 508.974 353.578 509.422C354.345 509.862 355.236 510.082 356.252 510.082C356.912 510.082 357.509 509.99 358.042 509.805C358.581 509.614 359.047 509.33 359.437 508.953C359.828 508.57 360.13 508.094 360.343 507.526L362.772 508.207C362.516 509.031 362.086 509.756 361.483 510.381C360.879 510.999 360.133 511.482 359.245 511.83C358.358 512.17 357.36 512.341 356.252 512.341ZM386.88 499.301L384.622 499.94C384.48 499.564 384.27 499.198 383.993 498.843C383.723 498.481 383.354 498.183 382.885 497.948C382.417 497.714 381.816 497.597 381.085 497.597C380.083 497.597 379.249 497.827 378.581 498.289C377.921 498.744 377.591 499.322 377.591 500.026C377.591 500.651 377.818 501.144 378.272 501.506C378.727 501.869 379.437 502.17 380.403 502.412L382.832 503.009C384.295 503.364 385.385 503.907 386.103 504.638C386.82 505.363 387.179 506.297 387.179 507.44C387.179 508.378 386.909 509.216 386.369 509.955C385.836 510.693 385.091 511.276 384.132 511.702C383.173 512.128 382.058 512.341 380.787 512.341C379.118 512.341 377.736 511.979 376.642 511.254C375.549 510.53 374.856 509.472 374.565 508.08L376.951 507.483C377.179 508.364 377.608 509.024 378.24 509.464C378.88 509.905 379.714 510.125 380.744 510.125C381.916 510.125 382.846 509.876 383.535 509.379C384.231 508.875 384.579 508.271 384.579 507.568C384.579 507 384.38 506.524 383.983 506.141C383.585 505.75 382.974 505.459 382.15 505.267L379.423 504.628C377.924 504.273 376.824 503.722 376.12 502.977C375.424 502.224 375.076 501.283 375.076 500.153C375.076 499.23 375.336 498.413 375.854 497.703C376.38 496.993 377.093 496.435 377.995 496.031C378.904 495.626 379.934 495.423 381.085 495.423C382.704 495.423 383.975 495.778 384.899 496.489C385.829 497.199 386.49 498.136 386.88 499.301ZM397.824 512.341C396.247 512.341 394.887 511.993 393.744 511.297C392.607 510.594 391.73 509.614 391.112 508.357C390.502 507.092 390.196 505.622 390.196 503.946C390.196 502.27 390.502 500.793 391.112 499.514C391.73 498.229 392.59 497.227 393.691 496.51C394.798 495.786 396.091 495.423 397.568 495.423C398.421 495.423 399.262 495.565 400.093 495.849C400.924 496.134 401.681 496.595 402.362 497.234C403.044 497.866 403.588 498.705 403.992 499.749C404.397 500.793 404.6 502.078 404.6 503.605V504.67H391.986V502.497H402.043C402.043 501.574 401.858 500.75 401.489 500.026C401.127 499.301 400.608 498.729 399.933 498.31C399.266 497.891 398.477 497.682 397.568 497.682C396.567 497.682 395.7 497.93 394.969 498.428C394.244 498.918 393.687 499.557 393.296 500.345C392.906 501.134 392.71 501.979 392.71 502.881V504.33C392.71 505.565 392.923 506.613 393.35 507.472C393.783 508.325 394.383 508.974 395.15 509.422C395.917 509.862 396.808 510.082 397.824 510.082C398.485 510.082 399.081 509.99 399.614 509.805C400.154 509.614 400.619 509.33 401.009 508.953C401.4 508.57 401.702 508.094 401.915 507.526L404.344 508.207C404.088 509.031 403.659 509.756 403.055 510.381C402.451 510.999 401.705 511.482 400.818 511.83C399.93 512.17 398.932 512.341 397.824 512.341ZM408.424 512V495.636H410.853V498.108H411.024C411.322 497.298 411.862 496.641 412.643 496.137C413.424 495.633 414.305 495.381 415.285 495.381C415.47 495.381 415.7 495.384 415.977 495.391C416.254 495.398 416.464 495.409 416.606 495.423V497.98C416.521 497.959 416.325 497.927 416.02 497.884C415.722 497.835 415.406 497.81 415.072 497.81C414.276 497.81 413.566 497.977 412.941 498.31C412.323 498.637 411.833 499.092 411.471 499.674C411.116 500.249 410.938 500.906 410.938 501.645V512H408.424ZM439.615 499.301L437.356 499.94C437.214 499.564 437.005 499.198 436.728 498.843C436.458 498.481 436.088 498.183 435.62 497.948C435.151 497.714 434.551 497.597 433.819 497.597C432.818 497.597 431.983 497.827 431.316 498.289C430.655 498.744 430.325 499.322 430.325 500.026C430.325 500.651 430.552 501.144 431.007 501.506C431.461 501.869 432.172 502.17 433.137 502.412L435.566 503.009C437.029 503.364 438.12 503.907 438.837 504.638C439.554 505.363 439.913 506.297 439.913 507.44C439.913 508.378 439.643 509.216 439.103 509.955C438.571 510.693 437.825 511.276 436.866 511.702C435.907 512.128 434.792 512.341 433.521 512.341C431.852 512.341 430.471 511.979 429.377 511.254C428.283 510.53 427.591 509.472 427.299 508.08L429.686 507.483C429.913 508.364 430.343 509.024 430.975 509.464C431.614 509.905 432.449 510.125 433.478 510.125C434.65 510.125 435.581 509.876 436.27 509.379C436.966 508.875 437.314 508.271 437.314 507.568C437.314 507 437.115 506.524 436.717 506.141C436.319 505.75 435.708 505.459 434.885 505.267L432.157 504.628C430.659 504.273 429.558 503.722 428.855 502.977C428.159 502.224 427.811 501.283 427.811 500.153C427.811 499.23 428.07 498.413 428.588 497.703C429.114 496.993 429.828 496.435 430.73 496.031C431.639 495.626 432.669 495.423 433.819 495.423C435.439 495.423 436.71 495.778 437.633 496.489C438.564 497.199 439.224 498.136 439.615 499.301ZM450.558 512.341C448.982 512.341 447.622 511.993 446.478 511.297C445.342 510.594 444.465 509.614 443.847 508.357C443.236 507.092 442.931 505.622 442.931 503.946C442.931 502.27 443.236 500.793 443.847 499.514C444.465 498.229 445.324 497.227 446.425 496.51C447.533 495.786 448.825 495.423 450.303 495.423C451.155 495.423 451.997 495.565 452.828 495.849C453.659 496.134 454.415 496.595 455.097 497.234C455.779 497.866 456.322 498.705 456.727 499.749C457.132 500.793 457.334 502.078 457.334 503.605V504.67H444.72V502.497H454.777C454.777 501.574 454.593 500.75 454.223 500.026C453.861 499.301 453.343 498.729 452.668 498.31C452 497.891 451.212 497.682 450.303 497.682C449.301 497.682 448.435 497.93 447.703 498.428C446.979 498.918 446.421 499.557 446.031 500.345C445.64 501.134 445.445 501.979 445.445 502.881V504.33C445.445 505.565 445.658 506.613 446.084 507.472C446.517 508.325 447.117 508.974 447.884 509.422C448.651 509.862 449.543 510.082 450.558 510.082C451.219 510.082 451.816 509.99 452.348 509.805C452.888 509.614 453.353 509.33 453.744 508.953C454.134 508.57 454.436 508.094 454.649 507.526L457.078 508.207C456.823 509.031 456.393 509.756 455.789 510.381C455.186 510.999 454.44 511.482 453.552 511.83C452.664 512.17 451.666 512.341 450.558 512.341ZM471.471 505.31V495.636H473.985V512H471.471V509.23H471.301C470.917 510.061 470.32 510.768 469.511 511.35C468.701 511.925 467.678 512.213 466.443 512.213C465.42 512.213 464.511 511.989 463.715 511.542C462.92 511.087 462.295 510.406 461.84 509.496C461.386 508.58 461.159 507.426 461.159 506.034V495.636H463.673V505.864C463.673 507.057 464.007 508.009 464.674 508.719C465.349 509.429 466.208 509.784 467.252 509.784C467.877 509.784 468.513 509.624 469.159 509.305C469.813 508.985 470.36 508.495 470.8 507.835C471.247 507.174 471.471 506.332 471.471 505.31ZM489.542 502.156V512H487.028V495.636H489.457V498.193H489.67C490.053 497.362 490.636 496.695 491.417 496.19C492.198 495.679 493.207 495.423 494.442 495.423C495.55 495.423 496.52 495.651 497.351 496.105C498.182 496.553 498.828 497.234 499.29 498.151C499.751 499.06 499.982 500.21 499.982 501.602V512H497.468V501.773C497.468 500.487 497.134 499.486 496.467 498.768C495.799 498.044 494.883 497.682 493.718 497.682C492.915 497.682 492.198 497.856 491.566 498.204C490.941 498.552 490.447 499.06 490.085 499.727C489.723 500.395 489.542 501.205 489.542 502.156ZM511.224 512.341C509.747 512.341 508.451 511.989 507.336 511.286C506.228 510.583 505.361 509.599 504.736 508.335C504.118 507.071 503.809 505.594 503.809 503.903C503.809 502.199 504.118 500.711 504.736 499.44C505.361 498.168 506.228 497.181 507.336 496.478C508.451 495.775 509.747 495.423 511.224 495.423C512.702 495.423 513.994 495.775 515.102 496.478C516.217 497.181 517.084 498.168 517.702 499.44C518.327 500.711 518.639 502.199 518.639 503.903C518.639 505.594 518.327 507.071 517.702 508.335C517.084 509.599 516.217 510.583 515.102 511.286C513.994 511.989 512.702 512.341 511.224 512.341ZM511.224 510.082C512.346 510.082 513.27 509.795 513.994 509.219C514.719 508.644 515.255 507.888 515.603 506.95C515.951 506.013 516.125 504.997 516.125 503.903C516.125 502.81 515.951 501.79 515.603 500.846C515.255 499.901 514.719 499.138 513.994 498.555C513.27 497.973 512.346 497.682 511.224 497.682C510.102 497.682 509.179 497.973 508.454 498.555C507.73 499.138 507.194 499.901 506.846 500.846C506.498 501.79 506.324 502.81 506.324 503.903C506.324 504.997 506.498 506.013 506.846 506.95C507.194 507.888 507.73 508.644 508.454 509.219C509.179 509.795 510.102 510.082 511.224 510.082ZM522.477 512V495.636H524.906V498.193H525.119C525.46 497.32 526.01 496.641 526.77 496.158C527.53 495.668 528.443 495.423 529.508 495.423C530.588 495.423 531.486 495.668 532.203 496.158C532.928 496.641 533.493 497.32 533.897 498.193H534.068C534.487 497.348 535.115 496.677 535.953 496.18C536.792 495.675 537.797 495.423 538.968 495.423C540.431 495.423 541.628 495.881 542.559 496.798C543.489 497.707 543.954 499.124 543.954 501.048V512H541.44V501.048C541.44 499.841 541.11 498.978 540.449 498.46C539.789 497.941 539.011 497.682 538.116 497.682C536.966 497.682 536.074 498.03 535.442 498.726C534.81 499.415 534.494 500.288 534.494 501.347V512H531.937V500.793C531.937 499.862 531.635 499.113 531.032 498.545C530.428 497.969 529.65 497.682 528.699 497.682C528.045 497.682 527.434 497.856 526.866 498.204C526.305 498.552 525.85 499.035 525.502 499.653C525.162 500.263 524.991 500.97 524.991 501.773V512H522.477ZM555.412 512.341C553.835 512.341 552.475 511.993 551.332 511.297C550.195 510.594 549.318 509.614 548.7 508.357C548.089 507.092 547.784 505.622 547.784 503.946C547.784 502.27 548.089 500.793 548.7 499.514C549.318 498.229 550.178 497.227 551.278 496.51C552.386 495.786 553.679 495.423 555.156 495.423C556.009 495.423 556.85 495.565 557.681 495.849C558.512 496.134 559.268 496.595 559.95 497.234C560.632 497.866 561.175 498.705 561.58 499.749C561.985 500.793 562.188 502.078 562.188 503.605V504.67H549.574V502.497H559.631C559.631 501.574 559.446 500.75 559.077 500.026C558.714 499.301 558.196 498.729 557.521 498.31C556.854 497.891 556.065 497.682 555.156 497.682C554.155 497.682 553.288 497.93 552.557 498.428C551.832 498.918 551.275 499.557 550.884 500.345C550.494 501.134 550.298 501.979 550.298 502.881V504.33C550.298 505.565 550.511 506.613 550.938 507.472C551.371 508.325 551.971 508.974 552.738 509.422C553.505 509.862 554.396 510.082 555.412 510.082C556.072 510.082 556.669 509.99 557.202 509.805C557.741 509.614 558.207 509.33 558.597 508.953C558.988 508.57 559.29 508.094 559.503 507.526L561.932 508.207C561.676 509.031 561.246 509.756 560.643 510.381C560.039 510.999 559.293 511.482 558.406 511.83C557.518 512.17 556.52 512.341 555.412 512.341ZM574.45 518.136V495.636H576.879V498.236H577.177C577.362 497.952 577.617 497.589 577.944 497.149C578.278 496.702 578.754 496.304 579.371 495.956C579.996 495.601 580.842 495.423 581.907 495.423C583.285 495.423 584.499 495.768 585.55 496.457C586.602 497.146 587.422 498.122 588.011 499.386C588.601 500.651 588.896 502.142 588.896 503.861C588.896 505.594 588.601 507.096 588.011 508.367C587.422 509.631 586.605 510.612 585.561 511.308C584.517 511.996 583.313 512.341 581.95 512.341C580.898 512.341 580.057 512.167 579.425 511.819C578.793 511.464 578.306 511.062 577.965 510.615C577.624 510.161 577.362 509.784 577.177 509.486H576.964V518.136H574.45ZM576.921 503.818C576.921 505.054 577.102 506.144 577.464 507.089C577.827 508.026 578.356 508.761 579.052 509.294C579.748 509.82 580.6 510.082 581.609 510.082C582.66 510.082 583.537 509.805 584.24 509.251C584.95 508.69 585.483 507.937 585.838 506.993C586.2 506.041 586.381 504.983 586.381 503.818C586.381 502.668 586.204 501.631 585.849 500.707C585.501 499.777 584.972 499.042 584.261 498.502C583.558 497.955 582.674 497.682 581.609 497.682C580.586 497.682 579.727 497.941 579.031 498.46C578.335 498.971 577.809 499.688 577.454 500.612C577.099 501.528 576.921 502.597 576.921 503.818ZM599.592 512.341C598.015 512.341 596.655 511.993 595.511 511.297C594.375 510.594 593.498 509.614 592.88 508.357C592.269 507.092 591.964 505.622 591.964 503.946C591.964 502.27 592.269 500.793 592.88 499.514C593.498 498.229 594.357 497.227 595.458 496.51C596.566 495.786 597.859 495.423 599.336 495.423C600.188 495.423 601.03 495.565 601.861 495.849C602.692 496.134 603.448 496.595 604.13 497.234C604.812 497.866 605.355 498.705 605.76 499.749C606.165 500.793 606.367 502.078 606.367 503.605V504.67H593.754V502.497H603.81C603.81 501.574 603.626 500.75 603.256 500.026C602.894 499.301 602.376 498.729 601.701 498.31C601.033 497.891 600.245 497.682 599.336 497.682C598.335 497.682 597.468 497.93 596.737 498.428C596.012 498.918 595.455 499.557 595.064 500.345C594.673 501.134 594.478 501.979 594.478 502.881V504.33C594.478 505.565 594.691 506.613 595.117 507.472C595.55 508.325 596.151 508.974 596.918 509.422C597.685 509.862 598.576 510.082 599.592 510.082C600.252 510.082 600.849 509.99 601.381 509.805C601.921 509.614 602.386 509.33 602.777 508.953C603.168 508.57 603.469 508.094 603.683 507.526L606.112 508.207C605.856 509.031 605.426 509.756 604.822 510.381C604.219 510.999 603.473 511.482 602.585 511.83C601.697 512.17 600.7 512.341 599.592 512.341ZM621.783 499.301L619.524 499.94C619.382 499.564 619.173 499.198 618.896 498.843C618.626 498.481 618.256 498.183 617.788 497.948C617.319 497.714 616.719 497.597 615.987 497.597C614.986 497.597 614.151 497.827 613.484 498.289C612.823 498.744 612.493 499.322 612.493 500.026C612.493 500.651 612.72 501.144 613.175 501.506C613.629 501.869 614.339 502.17 615.305 502.412L617.734 503.009C619.197 503.364 620.288 503.907 621.005 504.638C621.722 505.363 622.081 506.297 622.081 507.44C622.081 508.378 621.811 509.216 621.271 509.955C620.739 510.693 619.993 511.276 619.034 511.702C618.075 512.128 616.96 512.341 615.689 512.341C614.02 512.341 612.638 511.979 611.545 511.254C610.451 510.53 609.759 509.472 609.467 508.08L611.854 507.483C612.081 508.364 612.511 509.024 613.143 509.464C613.782 509.905 614.616 510.125 615.646 510.125C616.818 510.125 617.749 509.876 618.438 509.379C619.134 508.875 619.482 508.271 619.482 507.568C619.482 507 619.283 506.524 618.885 506.141C618.487 505.75 617.876 505.459 617.053 505.267L614.325 504.628C612.827 504.273 611.726 503.722 611.023 502.977C610.327 502.224 609.979 501.283 609.979 500.153C609.979 499.23 610.238 498.413 610.756 497.703C611.282 496.993 611.996 496.435 612.898 496.031C613.807 495.626 614.837 495.423 615.987 495.423C617.607 495.423 618.878 495.778 619.801 496.489C620.732 497.199 621.392 498.136 621.783 499.301ZM637.456 499.301L635.198 499.94C635.056 499.564 634.846 499.198 634.569 498.843C634.3 498.481 633.93 498.183 633.461 497.948C632.993 497.714 632.393 497.597 631.661 497.597C630.66 497.597 629.825 497.827 629.157 498.289C628.497 498.744 628.167 499.322 628.167 500.026C628.167 500.651 628.394 501.144 628.849 501.506C629.303 501.869 630.013 502.17 630.979 502.412L633.408 503.009C634.871 503.364 635.961 503.907 636.679 504.638C637.396 505.363 637.755 506.297 637.755 507.44C637.755 508.378 637.485 509.216 636.945 509.955C636.412 510.693 635.667 511.276 634.708 511.702C633.749 512.128 632.634 512.341 631.363 512.341C629.694 512.341 628.312 511.979 627.219 511.254C626.125 510.53 625.432 509.472 625.141 508.08L627.528 507.483C627.755 508.364 628.184 509.024 628.817 509.464C629.456 509.905 630.29 510.125 631.32 510.125C632.492 510.125 633.422 509.876 634.111 509.379C634.807 508.875 635.155 508.271 635.155 507.568C635.155 507 634.956 506.524 634.559 506.141C634.161 505.75 633.55 505.459 632.726 505.267L629.999 504.628C628.501 504.273 627.4 503.722 626.697 502.977C626.001 502.224 625.653 501.283 625.653 500.153C625.653 499.23 625.912 498.413 626.43 497.703C626.956 496.993 627.67 496.435 628.572 496.031C629.481 495.626 630.51 495.423 631.661 495.423C633.28 495.423 634.552 495.778 635.475 496.489C636.405 497.199 637.066 498.136 637.456 499.301ZM648.187 512.341C646.71 512.341 645.414 511.989 644.299 511.286C643.191 510.583 642.324 509.599 641.699 508.335C641.081 507.071 640.772 505.594 640.772 503.903C640.772 502.199 641.081 500.711 641.699 499.44C642.324 498.168 643.191 497.181 644.299 496.478C645.414 495.775 646.71 495.423 648.187 495.423C649.664 495.423 650.957 495.775 652.065 496.478C653.18 497.181 654.047 498.168 654.664 499.44C655.289 500.711 655.602 502.199 655.602 503.903C655.602 505.594 655.289 507.071 654.664 508.335C654.047 509.599 653.18 510.583 652.065 511.286C650.957 511.989 649.664 512.341 648.187 512.341ZM648.187 510.082C649.309 510.082 650.233 509.795 650.957 509.219C651.681 508.644 652.218 507.888 652.566 506.95C652.914 506.013 653.088 504.997 653.088 503.903C653.088 502.81 652.914 501.79 652.566 500.846C652.218 499.901 651.681 499.138 650.957 498.555C650.233 497.973 649.309 497.682 648.187 497.682C647.065 497.682 646.142 497.973 645.417 498.555C644.693 499.138 644.157 499.901 643.809 500.846C643.461 501.79 643.287 502.81 643.287 503.903C643.287 504.997 643.461 506.013 643.809 506.95C644.157 507.888 644.693 508.644 645.417 509.219C646.142 509.795 647.065 510.082 648.187 510.082ZM664.255 512.384C663.218 512.384 662.277 512.188 661.432 511.798C660.587 511.4 659.916 510.828 659.419 510.082C658.921 509.33 658.673 508.42 658.673 507.355C658.673 506.418 658.857 505.658 659.227 505.075C659.596 504.486 660.09 504.024 660.708 503.69C661.325 503.357 662.007 503.108 662.753 502.945C663.506 502.774 664.262 502.639 665.022 502.54C666.017 502.412 666.823 502.316 667.441 502.252C668.066 502.181 668.52 502.064 668.804 501.901C669.095 501.737 669.241 501.453 669.241 501.048V500.963C669.241 499.912 668.953 499.095 668.378 498.513C667.81 497.93 666.947 497.639 665.789 497.639C664.589 497.639 663.648 497.902 662.966 498.428C662.284 498.953 661.805 499.514 661.528 500.111L659.142 499.259C659.568 498.264 660.136 497.49 660.846 496.936C661.563 496.375 662.345 495.984 663.19 495.764C664.042 495.537 664.88 495.423 665.704 495.423C666.23 495.423 666.833 495.487 667.515 495.615C668.204 495.736 668.868 495.988 669.507 496.371C670.154 496.755 670.69 497.334 671.116 498.108C671.542 498.882 671.755 499.919 671.755 501.219V512H669.241V509.784H669.113C668.943 510.139 668.659 510.519 668.261 510.924C667.863 511.329 667.334 511.673 666.673 511.957C666.013 512.241 665.207 512.384 664.255 512.384ZM664.639 510.125C665.633 510.125 666.471 509.93 667.153 509.539C667.842 509.148 668.36 508.644 668.708 508.026C669.063 507.408 669.241 506.759 669.241 506.077V503.776C669.134 503.903 668.9 504.021 668.538 504.127C668.183 504.227 667.771 504.315 667.302 504.393C666.84 504.464 666.389 504.528 665.949 504.585C665.516 504.635 665.164 504.678 664.894 504.713C664.241 504.798 663.63 504.937 663.062 505.129C662.501 505.313 662.046 505.594 661.698 505.97C661.357 506.339 661.187 506.844 661.187 507.483C661.187 508.357 661.51 509.017 662.156 509.464C662.81 509.905 663.637 510.125 664.639 510.125ZM678.858 490.182V512H676.344V490.182H678.858ZM698.548 512.341C697.071 512.341 695.775 511.989 694.66 511.286C693.552 510.583 692.686 509.599 692.061 508.335C691.443 507.071 691.134 505.594 691.134 503.903C691.134 502.199 691.443 500.711 692.061 499.44C692.686 498.168 693.552 497.181 694.66 496.478C695.775 495.775 697.071 495.423 698.548 495.423C700.026 495.423 701.318 495.775 702.426 496.478C703.541 497.181 704.408 498.168 705.026 499.44C705.651 500.711 705.963 502.199 705.963 503.903C705.963 505.594 705.651 507.071 705.026 508.335C704.408 509.599 703.541 510.583 702.426 511.286C701.318 511.989 700.026 512.341 698.548 512.341ZM698.548 510.082C699.671 510.082 700.594 509.795 701.318 509.219C702.043 508.644 702.579 507.888 702.927 506.95C703.275 506.013 703.449 504.997 703.449 503.903C703.449 502.81 703.275 501.79 702.927 500.846C702.579 499.901 702.043 499.138 701.318 498.555C700.594 497.973 699.671 497.682 698.548 497.682C697.426 497.682 696.503 497.973 695.779 498.555C695.054 499.138 694.518 499.901 694.17 500.846C693.822 501.79 693.648 502.81 693.648 503.903C693.648 504.997 693.822 506.013 694.17 506.95C694.518 507.888 695.054 508.644 695.779 509.219C696.503 509.795 697.426 510.082 698.548 510.082ZM720.114 505.31V495.636H722.628V512H720.114V509.23H719.943C719.56 510.061 718.963 510.768 718.153 511.35C717.344 511.925 716.321 512.213 715.085 512.213C714.062 512.213 713.153 511.989 712.358 511.542C711.563 511.087 710.938 510.406 710.483 509.496C710.028 508.58 709.801 507.426 709.801 506.034V495.636H712.315V505.864C712.315 507.057 712.649 508.009 713.317 508.719C713.991 509.429 714.851 509.784 715.895 509.784C716.52 509.784 717.156 509.624 717.802 509.305C718.455 508.985 719.002 508.495 719.442 507.835C719.89 507.174 720.114 506.332 720.114 505.31ZM741.849 512.341C740.486 512.341 739.282 511.996 738.238 511.308C737.194 510.612 736.377 509.631 735.787 508.367C735.198 507.096 734.903 505.594 734.903 503.861C734.903 502.142 735.198 500.651 735.787 499.386C736.377 498.122 737.197 497.146 738.248 496.457C739.3 495.768 740.514 495.423 741.892 495.423C742.957 495.423 743.799 495.601 744.417 495.956C745.042 496.304 745.518 496.702 745.844 497.149C746.178 497.589 746.437 497.952 746.622 498.236H746.835V490.182H749.349V512H746.92V509.486H746.622C746.437 509.784 746.175 510.161 745.834 510.615C745.493 511.062 745.006 511.464 744.374 511.819C743.742 512.167 742.9 512.341 741.849 512.341ZM742.19 510.082C743.199 510.082 744.051 509.82 744.747 509.294C745.443 508.761 745.972 508.026 746.334 507.089C746.697 506.144 746.878 505.054 746.878 503.818C746.878 502.597 746.7 501.528 746.345 500.612C745.99 499.688 745.464 498.971 744.768 498.46C744.072 497.941 743.213 497.682 742.19 497.682C741.125 497.682 740.237 497.955 739.527 498.502C738.824 499.042 738.295 499.777 737.939 500.707C737.591 501.631 737.417 502.668 737.417 503.818C737.417 504.983 737.595 506.041 737.95 506.993C738.312 507.937 738.845 508.69 739.548 509.251C740.258 509.805 741.139 510.082 742.19 510.082ZM759.118 512.384C758.081 512.384 757.14 512.188 756.295 511.798C755.45 511.4 754.779 510.828 754.282 510.082C753.785 509.33 753.536 508.42 753.536 507.355C753.536 506.418 753.721 505.658 754.09 505.075C754.459 504.486 754.953 504.024 755.571 503.69C756.189 503.357 756.871 503.108 757.616 502.945C758.369 502.774 759.126 502.639 759.885 502.54C760.88 502.412 761.686 502.316 762.304 502.252C762.929 502.181 763.383 502.064 763.667 501.901C763.959 501.737 764.104 501.453 764.104 501.048V500.963C764.104 499.912 763.817 499.095 763.241 498.513C762.673 497.93 761.81 497.639 760.653 497.639C759.452 497.639 758.511 497.902 757.829 498.428C757.148 498.953 756.668 499.514 756.391 500.111L754.005 499.259C754.431 498.264 754.999 497.49 755.709 496.936C756.427 496.375 757.208 495.984 758.053 495.764C758.905 495.537 759.743 495.423 760.567 495.423C761.093 495.423 761.697 495.487 762.378 495.615C763.067 495.736 763.731 495.988 764.371 496.371C765.017 496.755 765.553 497.334 765.979 498.108C766.405 498.882 766.618 499.919 766.618 501.219V512H764.104V509.784H763.976C763.806 510.139 763.522 510.519 763.124 510.924C762.726 511.329 762.197 511.673 761.537 511.957C760.876 512.241 760.07 512.384 759.118 512.384ZM759.502 510.125C760.496 510.125 761.334 509.93 762.016 509.539C762.705 509.148 763.224 508.644 763.572 508.026C763.927 507.408 764.104 506.759 764.104 506.077V503.776C763.998 503.903 763.763 504.021 763.401 504.127C763.046 504.227 762.634 504.315 762.165 504.393C761.704 504.464 761.253 504.528 760.812 504.585C760.379 504.635 760.028 504.678 759.758 504.713C759.104 504.798 758.493 504.937 757.925 505.129C757.364 505.313 756.91 505.594 756.562 505.97C756.221 506.339 756.05 506.844 756.05 507.483C756.05 508.357 756.373 509.017 757.02 509.464C757.673 509.905 758.501 510.125 759.502 510.125ZM791.236 499.301L788.977 499.94C788.835 499.564 788.626 499.198 788.349 498.843C788.079 498.481 787.71 498.183 787.241 497.948C786.772 497.714 786.172 497.597 785.44 497.597C784.439 497.597 783.604 497.827 782.937 498.289C782.276 498.744 781.946 499.322 781.946 500.026C781.946 500.651 782.173 501.144 782.628 501.506C783.082 501.869 783.793 502.17 784.759 502.412L787.188 503.009C788.651 503.364 789.741 503.907 790.458 504.638C791.175 505.363 791.534 506.297 791.534 507.44C791.534 508.378 791.264 509.216 790.724 509.955C790.192 510.693 789.446 511.276 788.487 511.702C787.528 512.128 786.413 512.341 785.142 512.341C783.473 512.341 782.092 511.979 780.998 511.254C779.904 510.53 779.212 509.472 778.92 508.08L781.307 507.483C781.534 508.364 781.964 509.024 782.596 509.464C783.235 509.905 784.07 510.125 785.099 510.125C786.271 510.125 787.202 509.876 787.891 509.379C788.587 508.875 788.935 508.271 788.935 507.568C788.935 507 788.736 506.524 788.338 506.141C787.94 505.75 787.33 505.459 786.506 505.267L783.778 504.628C782.28 504.273 781.179 503.722 780.476 502.977C779.78 502.224 779.432 501.283 779.432 500.153C779.432 499.23 779.691 498.413 780.21 497.703C780.735 496.993 781.449 496.435 782.351 496.031C783.26 495.626 784.29 495.423 785.44 495.423C787.06 495.423 788.331 495.778 789.254 496.489C790.185 497.199 790.845 498.136 791.236 499.301ZM805.631 505.31V495.636H808.145V512H805.631V509.23H805.461C805.077 510.061 804.481 510.768 803.671 511.35C802.861 511.925 801.839 512.213 800.603 512.213C799.58 512.213 798.671 511.989 797.876 511.542C797.08 511.087 796.455 510.406 796.001 509.496C795.546 508.58 795.319 507.426 795.319 506.034V495.636H797.833V505.864C797.833 507.057 798.167 508.009 798.834 508.719C799.509 509.429 800.368 509.784 801.412 509.784C802.037 509.784 802.673 509.624 803.319 509.305C803.973 508.985 804.52 508.495 804.96 507.835C805.407 507.174 805.631 506.332 805.631 505.31ZM817.566 512.384C816.529 512.384 815.588 512.188 814.743 511.798C813.897 511.4 813.226 510.828 812.729 510.082C812.232 509.33 811.983 508.42 811.983 507.355C811.983 506.418 812.168 505.658 812.537 505.075C812.907 504.486 813.4 504.024 814.018 503.69C814.636 503.357 815.318 503.108 816.064 502.945C816.816 502.774 817.573 502.639 818.333 502.54C819.327 502.412 820.133 502.316 820.751 502.252C821.376 502.181 821.831 502.064 822.115 501.901C822.406 501.737 822.551 501.453 822.551 501.048V500.963C822.551 499.912 822.264 499.095 821.689 498.513C821.12 497.93 820.257 497.639 819.1 497.639C817.9 497.639 816.958 497.902 816.277 498.428C815.595 498.953 815.115 499.514 814.838 500.111L812.452 499.259C812.878 498.264 813.446 497.49 814.157 496.936C814.874 496.375 815.655 495.984 816.5 495.764C817.353 495.537 818.191 495.423 819.015 495.423C819.54 495.423 820.144 495.487 820.826 495.615C821.515 495.736 822.179 495.988 822.818 496.371C823.464 496.755 824 497.334 824.426 498.108C824.853 498.882 825.066 499.919 825.066 501.219V512H822.551V509.784H822.424C822.253 510.139 821.969 510.519 821.571 510.924C821.174 511.329 820.645 511.673 819.984 511.957C819.324 512.241 818.517 512.384 817.566 512.384ZM817.949 510.125C818.944 510.125 819.782 509.93 820.463 509.539C821.152 509.148 821.671 508.644 822.019 508.026C822.374 507.408 822.551 506.759 822.551 506.077V503.776C822.445 503.903 822.211 504.021 821.848 504.127C821.493 504.227 821.081 504.315 820.613 504.393C820.151 504.464 819.7 504.528 819.26 504.585C818.826 504.635 818.475 504.678 818.205 504.713C817.551 504.798 816.941 504.937 816.373 505.129C815.811 505.313 815.357 505.594 815.009 505.97C814.668 506.339 814.498 506.844 814.498 507.483C814.498 508.357 814.821 509.017 815.467 509.464C816.12 509.905 816.948 510.125 817.949 510.125ZM844.953 512.341C843.376 512.341 842.016 511.993 840.873 511.297C839.736 510.594 838.859 509.614 838.241 508.357C837.631 507.092 837.325 505.622 837.325 503.946C837.325 502.27 837.631 500.793 838.241 499.514C838.859 498.229 839.719 497.227 840.819 496.51C841.927 495.786 843.22 495.423 844.697 495.423C845.55 495.423 846.391 495.565 847.222 495.849C848.053 496.134 848.809 496.595 849.491 497.234C850.173 497.866 850.716 498.705 851.121 499.749C851.526 500.793 851.729 502.078 851.729 503.605V504.67H839.115V502.497H849.172C849.172 501.574 848.987 500.75 848.618 500.026C848.256 499.301 847.737 498.729 847.062 498.31C846.395 497.891 845.606 497.682 844.697 497.682C843.696 497.682 842.829 497.93 842.098 498.428C841.373 498.918 840.816 499.557 840.425 500.345C840.035 501.134 839.839 501.979 839.839 502.881V504.33C839.839 505.565 840.052 506.613 840.479 507.472C840.912 508.325 841.512 508.974 842.279 509.422C843.046 509.862 843.937 510.082 844.953 510.082C845.613 510.082 846.21 509.99 846.743 509.805C847.282 509.614 847.748 509.33 848.138 508.953C848.529 508.57 848.831 508.094 849.044 507.526L851.473 508.207C851.217 509.031 850.787 509.756 850.184 510.381C849.58 510.999 848.834 511.482 847.947 511.83C847.059 512.17 846.061 512.341 844.953 512.341ZM855.553 512V495.636H857.982V498.193H858.195C858.536 497.32 859.086 496.641 859.846 496.158C860.606 495.668 861.519 495.423 862.584 495.423C863.664 495.423 864.562 495.668 865.28 496.158C866.004 496.641 866.569 497.32 866.974 498.193H867.144C867.563 497.348 868.192 496.677 869.03 496.18C869.868 495.675 870.873 495.423 872.045 495.423C873.508 495.423 874.704 495.881 875.635 496.798C876.565 497.707 877.03 499.124 877.03 501.048V512H874.516V501.048C874.516 499.841 874.186 498.978 873.525 498.46C872.865 497.941 872.087 497.682 871.192 497.682C870.042 497.682 869.15 498.03 868.518 498.726C867.886 499.415 867.57 500.288 867.57 501.347V512H865.013V500.793C865.013 499.862 864.711 499.113 864.108 498.545C863.504 497.969 862.726 497.682 861.775 497.682C861.121 497.682 860.51 497.856 859.942 498.204C859.381 498.552 858.927 499.035 858.579 499.653C858.238 500.263 858.067 500.97 858.067 501.773V512H855.553ZM881.627 518.136V495.636H884.056V498.236H884.355C884.539 497.952 884.795 497.589 885.122 497.149C885.455 496.702 885.931 496.304 886.549 495.956C887.174 495.601 888.019 495.423 889.085 495.423C890.463 495.423 891.677 495.768 892.728 496.457C893.779 497.146 894.6 498.122 895.189 499.386C895.779 500.651 896.073 502.142 896.073 503.861C896.073 505.594 895.779 507.096 895.189 508.367C894.6 509.631 893.783 510.612 892.739 511.308C891.695 511.996 890.491 512.341 889.127 512.341C888.076 512.341 887.235 512.167 886.602 511.819C885.97 511.464 885.484 511.062 885.143 510.615C884.802 510.161 884.539 509.784 884.355 509.486H884.142V518.136H881.627ZM884.099 503.818C884.099 505.054 884.28 506.144 884.642 507.089C885.004 508.026 885.534 508.761 886.23 509.294C886.926 509.82 887.778 510.082 888.786 510.082C889.838 510.082 890.715 509.805 891.418 509.251C892.128 508.69 892.661 507.937 893.016 506.993C893.378 506.041 893.559 504.983 893.559 503.818C893.559 502.668 893.382 501.631 893.026 500.707C892.678 499.777 892.149 499.042 891.439 498.502C890.736 497.955 889.852 497.682 888.786 497.682C887.764 497.682 886.904 497.941 886.208 498.46C885.512 498.971 884.987 499.688 884.632 500.612C884.276 501.528 884.099 502.597 884.099 503.818ZM899.909 512V495.636H902.338V498.108H902.508C902.806 497.298 903.346 496.641 904.127 496.137C904.909 495.633 905.789 495.381 906.769 495.381C906.954 495.381 907.185 495.384 907.462 495.391C907.739 495.398 907.948 495.409 908.09 495.423V497.98C908.005 497.959 907.81 497.927 907.504 497.884C907.206 497.835 906.89 497.81 906.556 497.81C905.761 497.81 905.051 497.977 904.426 498.31C903.808 498.637 903.318 499.092 902.955 499.674C902.6 500.249 902.423 500.906 902.423 501.645V512H899.909ZM917.433 512.341C915.857 512.341 914.497 511.993 913.353 511.297C912.217 510.594 911.34 509.614 910.722 508.357C910.111 507.092 909.806 505.622 909.806 503.946C909.806 502.27 910.111 500.793 910.722 499.514C911.34 498.229 912.199 497.227 913.3 496.51C914.408 495.786 915.7 495.423 917.178 495.423C918.03 495.423 918.872 495.565 919.703 495.849C920.534 496.134 921.29 496.595 921.972 497.234C922.654 497.866 923.197 498.705 923.602 499.749C924.007 500.793 924.209 502.078 924.209 503.605V504.67H911.595V502.497H921.652C921.652 501.574 921.468 500.75 921.098 500.026C920.736 499.301 920.218 498.729 919.543 498.31C918.875 497.891 918.087 497.682 917.178 497.682C916.176 497.682 915.31 497.93 914.578 498.428C913.854 498.918 913.296 499.557 912.906 500.345C912.515 501.134 912.32 501.979 912.32 502.881V504.33C912.32 505.565 912.533 506.613 912.959 507.472C913.392 508.325 913.992 508.974 914.759 509.422C915.526 509.862 916.418 510.082 917.433 510.082C918.094 510.082 918.691 509.99 919.223 509.805C919.763 509.614 920.228 509.33 920.619 508.953C921.009 508.57 921.311 508.094 921.524 507.526L923.953 508.207C923.698 509.031 923.268 509.756 922.664 510.381C922.061 510.999 921.315 511.482 920.427 511.83C919.539 512.17 918.541 512.341 917.433 512.341ZM939.624 499.301L937.366 499.94C937.224 499.564 937.014 499.198 936.737 498.843C936.468 498.481 936.098 498.183 935.629 497.948C935.161 497.714 934.561 497.597 933.829 497.597C932.828 497.597 931.993 497.827 931.325 498.289C930.665 498.744 930.335 499.322 930.335 500.026C930.335 500.651 930.562 501.144 931.017 501.506C931.471 501.869 932.181 502.17 933.147 502.412L935.576 503.009C937.039 503.364 938.129 503.907 938.847 504.638C939.564 505.363 939.923 506.297 939.923 507.44C939.923 508.378 939.653 509.216 939.113 509.955C938.58 510.693 937.835 511.276 936.876 511.702C935.917 512.128 934.802 512.341 933.531 512.341C931.862 512.341 930.48 511.979 929.387 511.254C928.293 510.53 927.6 509.472 927.309 508.08L929.695 507.483C929.923 508.364 930.352 509.024 930.985 509.464C931.624 509.905 932.458 510.125 933.488 510.125C934.66 510.125 935.59 509.876 936.279 509.379C936.975 508.875 937.323 508.271 937.323 507.568C937.323 507 937.124 506.524 936.727 506.141C936.329 505.75 935.718 505.459 934.894 505.267L932.167 504.628C930.669 504.273 929.568 503.722 928.865 502.977C928.169 502.224 927.82 501.283 927.82 500.153C927.82 499.23 928.08 498.413 928.598 497.703C929.124 496.993 929.838 496.435 930.74 496.031C931.649 495.626 932.678 495.423 933.829 495.423C935.448 495.423 936.72 495.778 937.643 496.489C938.573 497.199 939.234 498.136 939.624 499.301ZM948.523 512.384C947.486 512.384 946.545 512.188 945.7 511.798C944.854 511.4 944.183 510.828 943.686 510.082C943.189 509.33 942.94 508.42 942.94 507.355C942.94 506.418 943.125 505.658 943.494 505.075C943.864 504.486 944.357 504.024 944.975 503.69C945.593 503.357 946.275 503.108 947.021 502.945C947.773 502.774 948.53 502.639 949.29 502.54C950.284 502.412 951.09 502.316 951.708 502.252C952.333 502.181 952.788 502.064 953.072 501.901C953.363 501.737 953.509 501.453 953.509 501.048V500.963C953.509 499.912 953.221 499.095 952.646 498.513C952.077 497.93 951.214 497.639 950.057 497.639C948.857 497.639 947.915 497.902 947.234 498.428C946.552 498.953 946.072 499.514 945.795 500.111L943.409 499.259C943.835 498.264 944.403 497.49 945.114 496.936C945.831 496.375 946.612 495.984 947.457 495.764C948.31 495.537 949.148 495.423 949.972 495.423C950.497 495.423 951.101 495.487 951.783 495.615C952.472 495.736 953.136 495.988 953.775 496.371C954.421 496.755 954.957 497.334 955.384 498.108C955.81 498.882 956.023 499.919 956.023 501.219V512H953.509V509.784H953.381C953.21 510.139 952.926 510.519 952.528 510.924C952.131 511.329 951.602 511.673 950.941 511.957C950.281 512.241 949.474 512.384 948.523 512.384ZM948.906 510.125C949.901 510.125 950.739 509.93 951.42 509.539C952.109 509.148 952.628 508.644 952.976 508.026C953.331 507.408 953.509 506.759 953.509 506.077V503.776C953.402 503.903 953.168 504.021 952.805 504.127C952.45 504.227 952.038 504.315 951.57 504.393C951.108 504.464 950.657 504.528 950.217 504.585C949.783 504.635 949.432 504.678 949.162 504.713C948.509 504.798 947.898 504.937 947.33 505.129C946.768 505.313 946.314 505.594 945.966 505.97C945.625 506.339 945.455 506.844 945.455 507.483C945.455 508.357 945.778 509.017 946.424 509.464C947.077 509.905 947.905 510.125 948.906 510.125Z" fill="#0E1A2B"/>
<rect x="321" y="570" width="608" height="86" rx="43" fill="#F4F4F4"/>
<path d="M568.344 621V605H573.75C575.005 605 576.031 605.227 576.828 605.68C577.63 606.128 578.224 606.734 578.609 607.5C578.995 608.266 579.188 609.12 579.188 610.062C579.188 611.005 578.995 611.862 578.609 612.633C578.229 613.404 577.641 614.018 576.844 614.477C576.047 614.93 575.026 615.156 573.781 615.156H569.906V613.438H573.719C574.578 613.438 575.268 613.289 575.789 612.992C576.31 612.695 576.688 612.294 576.922 611.789C577.161 611.279 577.281 610.703 577.281 610.062C577.281 609.422 577.161 608.849 576.922 608.344C576.688 607.839 576.307 607.443 575.781 607.156C575.255 606.865 574.557 606.719 573.687 606.719H570.281V621H568.344ZM586.961 621.25C585.805 621.25 584.807 620.995 583.969 620.484C583.135 619.969 582.492 619.25 582.039 618.328C581.591 617.401 581.367 616.323 581.367 615.094C581.367 613.865 581.591 612.781 582.039 611.844C582.492 610.901 583.122 610.167 583.93 609.641C584.742 609.109 585.69 608.844 586.773 608.844C587.398 608.844 588.016 608.948 588.625 609.156C589.234 609.365 589.789 609.703 590.289 610.172C590.789 610.635 591.188 611.25 591.484 612.016C591.781 612.781 591.93 613.724 591.93 614.844V615.625H582.68V614.031H590.055C590.055 613.354 589.919 612.75 589.648 612.219C589.383 611.687 589.003 611.268 588.508 610.961C588.018 610.654 587.44 610.5 586.773 610.5C586.039 610.5 585.404 610.682 584.867 611.047C584.336 611.406 583.927 611.875 583.641 612.453C583.354 613.031 583.211 613.651 583.211 614.312V615.375C583.211 616.281 583.367 617.049 583.68 617.68C583.997 618.305 584.438 618.781 585 619.109C585.563 619.432 586.216 619.594 586.961 619.594C587.445 619.594 587.883 619.526 588.273 619.391C588.669 619.25 589.01 619.042 589.297 618.766C589.583 618.484 589.805 618.135 589.961 617.719L591.742 618.219C591.555 618.823 591.24 619.354 590.797 619.812C590.354 620.266 589.807 620.62 589.156 620.875C588.505 621.125 587.773 621.25 586.961 621.25ZM599.266 621.25C598.266 621.25 597.383 620.997 596.617 620.492C595.852 619.982 595.253 619.263 594.82 618.336C594.388 617.404 594.172 616.302 594.172 615.031C594.172 613.771 594.388 612.677 594.82 611.75C595.253 610.823 595.854 610.107 596.625 609.602C597.396 609.096 598.286 608.844 599.297 608.844C600.078 608.844 600.695 608.974 601.148 609.234C601.607 609.49 601.956 609.781 602.195 610.109C602.44 610.432 602.63 610.698 602.766 610.906H602.922V605H604.766V621H602.984V619.156H602.766C602.63 619.375 602.438 619.651 602.188 619.984C601.938 620.312 601.581 620.607 601.117 620.867C600.654 621.122 600.036 621.25 599.266 621.25ZM599.516 619.594C600.255 619.594 600.88 619.401 601.391 619.016C601.901 618.625 602.289 618.086 602.555 617.398C602.82 616.706 602.953 615.906 602.953 615C602.953 614.104 602.823 613.32 602.563 612.648C602.302 611.971 601.917 611.445 601.406 611.07C600.896 610.69 600.266 610.5 599.516 610.5C598.734 610.5 598.083 610.701 597.563 611.102C597.047 611.497 596.659 612.036 596.398 612.719C596.143 613.396 596.016 614.156 596.016 615C596.016 615.854 596.146 616.63 596.406 617.328C596.672 618.021 597.063 618.573 597.578 618.984C598.099 619.391 598.745 619.594 599.516 619.594ZM608.398 621V609H610.18V610.812H610.305C610.523 610.219 610.919 609.737 611.492 609.367C612.065 608.997 612.711 608.812 613.43 608.812C613.565 608.812 613.734 608.815 613.938 608.82C614.141 608.826 614.294 608.833 614.398 608.844V610.719C614.336 610.703 614.193 610.68 613.969 610.648C613.75 610.612 613.518 610.594 613.273 610.594C612.69 610.594 612.169 610.716 611.711 610.961C611.258 611.201 610.898 611.534 610.633 611.961C610.372 612.383 610.242 612.865 610.242 613.406V621H608.398ZM621.094 621.25C620.01 621.25 619.06 620.992 618.242 620.477C617.43 619.961 616.794 619.24 616.336 618.312C615.883 617.385 615.656 616.302 615.656 615.062C615.656 613.812 615.883 612.721 616.336 611.789C616.794 610.857 617.43 610.133 618.242 609.617C619.06 609.102 620.01 608.844 621.094 608.844C622.177 608.844 623.125 609.102 623.938 609.617C624.755 610.133 625.391 610.857 625.844 611.789C626.302 612.721 626.531 613.812 626.531 615.062C626.531 616.302 626.302 617.385 625.844 618.312C625.391 619.24 624.755 619.961 623.938 620.477C623.125 620.992 622.177 621.25 621.094 621.25ZM621.094 619.594C621.917 619.594 622.594 619.383 623.125 618.961C623.656 618.539 624.049 617.984 624.305 617.297C624.56 616.609 624.688 615.865 624.688 615.062C624.688 614.26 624.56 613.513 624.305 612.82C624.049 612.128 623.656 611.568 623.125 611.141C622.594 610.714 621.917 610.5 621.094 610.5C620.271 610.5 619.594 610.714 619.063 611.141C618.531 611.568 618.138 612.128 617.883 612.82C617.628 613.513 617.5 614.26 617.5 615.062C617.5 615.865 617.628 616.609 617.883 617.297C618.138 617.984 618.531 618.539 619.063 618.961C619.594 619.383 620.271 619.594 621.094 619.594ZM644.533 609C644.439 608.208 644.059 607.594 643.393 607.156C642.726 606.719 641.908 606.5 640.939 606.5C640.231 606.5 639.611 606.615 639.08 606.844C638.554 607.073 638.143 607.388 637.846 607.789C637.554 608.19 637.408 608.646 637.408 609.156C637.408 609.583 637.51 609.951 637.713 610.258C637.921 610.56 638.187 610.812 638.51 611.016C638.833 611.214 639.171 611.378 639.525 611.508C639.88 611.633 640.205 611.734 640.502 611.812L642.127 612.25C642.544 612.359 643.007 612.51 643.518 612.703C644.033 612.896 644.525 613.159 644.994 613.492C645.468 613.82 645.859 614.242 646.166 614.758C646.473 615.273 646.627 615.906 646.627 616.656C646.627 617.521 646.4 618.302 645.947 619C645.499 619.698 644.843 620.253 643.979 620.664C643.119 621.076 642.075 621.281 640.846 621.281C639.7 621.281 638.708 621.096 637.869 620.727C637.036 620.357 636.38 619.841 635.9 619.18C635.426 618.518 635.158 617.75 635.096 616.875H637.096C637.148 617.479 637.351 617.979 637.705 618.375C638.064 618.766 638.518 619.057 639.064 619.25C639.617 619.437 640.21 619.531 640.846 619.531C641.585 619.531 642.249 619.411 642.838 619.172C643.426 618.927 643.893 618.589 644.236 618.156C644.58 617.719 644.752 617.208 644.752 616.625C644.752 616.094 644.604 615.661 644.307 615.328C644.01 614.995 643.619 614.724 643.135 614.516C642.65 614.307 642.127 614.125 641.564 613.969L639.596 613.406C638.346 613.047 637.356 612.534 636.627 611.867C635.898 611.201 635.533 610.328 635.533 609.25C635.533 608.354 635.775 607.573 636.26 606.906C636.749 606.234 637.406 605.714 638.229 605.344C639.057 604.969 639.981 604.781 641.002 604.781C642.033 604.781 642.95 604.966 643.752 605.336C644.554 605.701 645.189 606.201 645.658 606.836C646.132 607.471 646.382 608.193 646.408 609H644.533ZM649.563 621V609H651.406V621H649.563ZM650.5 607C650.141 607 649.831 606.878 649.57 606.633C649.315 606.388 649.188 606.094 649.188 605.75C649.188 605.406 649.315 605.112 649.57 604.867C649.831 604.622 650.141 604.5 650.5 604.5C650.859 604.5 651.167 604.622 651.422 604.867C651.682 605.112 651.813 605.406 651.813 605.75C651.813 606.094 651.682 606.388 651.422 606.633C651.167 606.878 650.859 607 650.5 607ZM656.627 605V621H654.783V605H656.627ZM669.816 609L665.379 621H663.504L659.066 609H661.066L664.379 618.562H664.504L667.816 609H669.816ZM675.416 621.281C674.656 621.281 673.965 621.138 673.346 620.852C672.726 620.56 672.234 620.141 671.869 619.594C671.505 619.042 671.322 618.375 671.322 617.594C671.322 616.906 671.458 616.349 671.729 615.922C671.999 615.49 672.361 615.151 672.814 614.906C673.268 614.661 673.768 614.479 674.314 614.359C674.867 614.234 675.421 614.135 675.979 614.063C676.708 613.969 677.299 613.898 677.752 613.852C678.21 613.799 678.544 613.714 678.752 613.594C678.965 613.474 679.072 613.266 679.072 612.969V612.906C679.072 612.135 678.861 611.536 678.439 611.109C678.023 610.682 677.39 610.469 676.541 610.469C675.661 610.469 674.971 610.661 674.471 611.047C673.971 611.432 673.619 611.844 673.416 612.281L671.666 611.656C671.979 610.927 672.395 610.359 672.916 609.953C673.442 609.542 674.015 609.255 674.635 609.094C675.26 608.927 675.874 608.844 676.479 608.844C676.864 608.844 677.307 608.891 677.807 608.984C678.312 609.073 678.799 609.258 679.268 609.539C679.742 609.82 680.135 610.245 680.447 610.812C680.76 611.38 680.916 612.141 680.916 613.094V621H679.072V619.375H678.979C678.854 619.635 678.645 619.914 678.354 620.211C678.062 620.508 677.674 620.76 677.189 620.969C676.705 621.177 676.114 621.281 675.416 621.281ZM675.697 619.625C676.426 619.625 677.041 619.482 677.541 619.195C678.046 618.909 678.426 618.539 678.682 618.086C678.942 617.633 679.072 617.156 679.072 616.656V614.969C678.994 615.062 678.822 615.148 678.557 615.227C678.296 615.299 677.994 615.365 677.65 615.422C677.312 615.474 676.981 615.521 676.658 615.562C676.34 615.599 676.083 615.63 675.885 615.656C675.406 615.719 674.958 615.82 674.541 615.961C674.13 616.096 673.796 616.302 673.541 616.578C673.291 616.849 673.166 617.219 673.166 617.687C673.166 618.328 673.403 618.812 673.877 619.141C674.356 619.464 674.963 619.625 675.697 619.625Z" fill="black"/>
</svg>
