<svg width="528" height="824" viewBox="0 0 528 824" fill="none" xmlns="http://www.w3.org/2000/svg">
<path d="M82.1621 71H80.2246C80.11 70.4427 79.9095 69.9531 79.623 69.5312C79.3418 69.1094 78.998 68.7552 78.5918 68.4688C78.1908 68.1771 77.7454 67.9583 77.2559 67.8125C76.7663 67.6667 76.2559 67.5937 75.7246 67.5937C74.7559 67.5937 73.8783 67.8385 73.0918 68.3281C72.3105 68.8177 71.6882 69.5391 71.2246 70.4922C70.7663 71.4453 70.5371 72.6146 70.5371 74C70.5371 75.3854 70.7663 76.5547 71.2246 77.5078C71.6882 78.4609 72.3105 79.1823 73.0918 79.6719C73.8783 80.1615 74.7559 80.4062 75.7246 80.4062C76.2559 80.4062 76.7663 80.3333 77.2559 80.1875C77.7454 80.0417 78.1908 79.8255 78.5918 79.5391C78.998 79.2474 79.3418 78.8906 79.623 78.4687C79.9095 78.0417 80.11 77.5521 80.2246 77H82.1621C82.0163 77.8177 81.7507 78.5495 81.3652 79.1953C80.9798 79.8411 80.5007 80.3906 79.9277 80.8437C79.3548 81.2917 78.7116 81.6328 77.998 81.8672C77.2897 82.1016 76.5319 82.2187 75.7246 82.2187C74.36 82.2187 73.1465 81.8854 72.084 81.2188C71.0215 80.5521 70.1855 79.6042 69.5762 78.375C68.9668 77.1458 68.6621 75.6875 68.6621 74C68.6621 72.3125 68.9668 70.8542 69.5762 69.625C70.1855 68.3958 71.0215 67.4479 72.084 66.7812C73.1465 66.1146 74.36 65.7812 75.7246 65.7812C76.5319 65.7812 77.2897 65.8984 77.998 66.1328C78.7116 66.3672 79.3548 66.7109 79.9277 67.1641C80.5007 67.612 80.9798 68.1589 81.3652 68.8047C81.7507 69.4453 82.0163 70.1771 82.1621 71ZM89.918 82.25C88.8346 82.25 87.8841 81.9922 87.0664 81.4766C86.2539 80.9609 85.6185 80.2396 85.1602 79.3125C84.707 78.3854 84.4805 77.3021 84.4805 76.0625C84.4805 74.8125 84.707 73.7214 85.1602 72.7891C85.6185 71.8568 86.2539 71.1328 87.0664 70.6172C87.8841 70.1016 88.8346 69.8438 89.918 69.8438C91.0013 69.8438 91.9492 70.1016 92.7617 70.6172C93.5794 71.1328 94.2148 71.8568 94.668 72.7891C95.1263 73.7214 95.3555 74.8125 95.3555 76.0625C95.3555 77.3021 95.1263 78.3854 94.668 79.3125C94.2148 80.2396 93.5794 80.9609 92.7617 81.4766C91.9492 81.9922 91.0013 82.25 89.918 82.25ZM89.918 80.5938C90.7409 80.5938 91.418 80.3828 91.9492 79.9609C92.4805 79.5391 92.8737 78.9844 93.1289 78.2969C93.3841 77.6094 93.5117 76.8646 93.5117 76.0625C93.5117 75.2604 93.3841 74.513 93.1289 73.8203C92.8737 73.1276 92.4805 72.5677 91.9492 72.1406C91.418 71.7135 90.7409 71.5 89.918 71.5C89.0951 71.5 88.418 71.7135 87.8867 72.1406C87.3555 72.5677 86.9622 73.1276 86.707 73.8203C86.4518 74.513 86.3242 75.2604 86.3242 76.0625C86.3242 76.8646 86.4518 77.6094 86.707 78.2969C86.9622 78.9844 87.3555 79.5391 87.8867 79.9609C88.418 80.3828 89.0951 80.5938 89.918 80.5938ZM100.014 74.7812V82H98.1699V70H99.9512V71.875H100.107C100.389 71.2656 100.816 70.776 101.389 70.4063C101.962 70.0313 102.701 69.8438 103.607 69.8438C104.42 69.8438 105.131 70.0104 105.74 70.3437C106.35 70.6719 106.824 71.1719 107.162 71.8437C107.501 72.5104 107.67 73.3542 107.67 74.375V82H105.826V74.5C105.826 73.5573 105.581 72.8229 105.092 72.2969C104.602 71.7656 103.93 71.5 103.076 71.5C102.488 71.5 101.962 71.6276 101.498 71.8828C101.04 72.138 100.678 72.5104 100.412 73C100.146 73.4896 100.014 74.0833 100.014 74.7812ZM116.258 70V71.5625H110.039V70H116.258ZM111.852 67.125H113.695V78.5625C113.695 79.0833 113.771 79.474 113.922 79.7344C114.078 79.9896 114.276 80.1615 114.516 80.25C114.76 80.3333 115.018 80.375 115.289 80.375C115.492 80.375 115.659 80.3646 115.789 80.3437C115.919 80.3177 116.023 80.2969 116.102 80.2812L116.477 81.9375C116.352 81.9844 116.177 82.0313 115.953 82.0781C115.729 82.1302 115.445 82.1563 115.102 82.1563C114.581 82.1563 114.07 82.0443 113.57 81.8203C113.076 81.5964 112.664 81.2552 112.336 80.7969C112.013 80.3385 111.852 79.7604 111.852 79.0625V67.125ZM119.031 82V70H120.812V71.8125H120.938C121.156 71.2188 121.552 70.737 122.125 70.3672C122.698 69.9974 123.344 69.8125 124.063 69.8125C124.198 69.8125 124.367 69.8151 124.57 69.8203C124.773 69.8255 124.927 69.8333 125.031 69.8438V71.7187C124.969 71.7031 124.826 71.6797 124.602 71.6484C124.383 71.612 124.151 71.5937 123.906 71.5937C123.323 71.5937 122.802 71.7161 122.344 71.9609C121.891 72.2005 121.531 72.5339 121.266 72.9609C121.005 73.3828 120.875 73.8646 120.875 74.4062V82H119.031ZM130.748 82.2813C129.988 82.2813 129.298 82.138 128.678 81.8516C128.058 81.5599 127.566 81.1406 127.201 80.5938C126.837 80.0417 126.654 79.375 126.654 78.5937C126.654 77.9062 126.79 77.349 127.061 76.9219C127.331 76.4896 127.693 76.151 128.146 75.9062C128.6 75.6615 129.1 75.4792 129.646 75.3594C130.199 75.2344 130.753 75.1354 131.311 75.0625C132.04 74.9687 132.631 74.8984 133.084 74.8516C133.542 74.7995 133.876 74.7135 134.084 74.5937C134.298 74.474 134.404 74.2656 134.404 73.9687V73.9062C134.404 73.1354 134.193 72.5365 133.771 72.1094C133.355 71.6823 132.722 71.4687 131.873 71.4687C130.993 71.4687 130.303 71.6615 129.803 72.0469C129.303 72.4323 128.951 72.8437 128.748 73.2812L126.998 72.6562C127.311 71.9271 127.727 71.3594 128.248 70.9531C128.774 70.5417 129.347 70.2552 129.967 70.0937C130.592 69.9271 131.206 69.8438 131.811 69.8438C132.196 69.8438 132.639 69.8906 133.139 69.9844C133.644 70.0729 134.131 70.2578 134.6 70.5391C135.074 70.8203 135.467 71.2448 135.779 71.8125C136.092 72.3802 136.248 73.1406 136.248 74.0938V82H134.404V80.375H134.311C134.186 80.6354 133.977 80.9141 133.686 81.2109C133.394 81.5078 133.006 81.7604 132.521 81.9687C132.037 82.1771 131.446 82.2813 130.748 82.2813ZM131.029 80.625C131.758 80.625 132.373 80.4818 132.873 80.1953C133.378 79.9089 133.758 79.5391 134.014 79.0859C134.274 78.6328 134.404 78.1562 134.404 77.6562V75.9687C134.326 76.0625 134.154 76.1484 133.889 76.2266C133.628 76.2995 133.326 76.3646 132.982 76.4219C132.644 76.474 132.313 76.5208 131.99 76.5625C131.673 76.599 131.415 76.6302 131.217 76.6562C130.738 76.7187 130.29 76.8203 129.873 76.9609C129.462 77.0964 129.128 77.3021 128.873 77.5781C128.623 77.849 128.498 78.2187 128.498 78.6875C128.498 79.3281 128.735 79.8125 129.209 80.1406C129.688 80.4635 130.295 80.625 131.029 80.625ZM144.832 70V71.5625H138.613V70H144.832ZM140.426 67.125H142.27V78.5625C142.27 79.0833 142.345 79.474 142.496 79.7344C142.652 79.9896 142.85 80.1615 143.09 80.25C143.335 80.3333 143.592 80.375 143.863 80.375C144.066 80.375 144.233 80.3646 144.363 80.3437C144.493 80.3177 144.598 80.2969 144.676 80.2812L145.051 81.9375C144.926 81.9844 144.751 82.0313 144.527 82.0781C144.303 82.1302 144.02 82.1563 143.676 82.1563C143.155 82.1563 142.645 82.0443 142.145 81.8203C141.65 81.5964 141.238 81.2552 140.91 80.7969C140.587 80.3385 140.426 79.7604 140.426 79.0625V67.125ZM152.352 82.25C151.268 82.25 150.318 81.9922 149.5 81.4766C148.688 80.9609 148.052 80.2396 147.594 79.3125C147.141 78.3854 146.914 77.3021 146.914 76.0625C146.914 74.8125 147.141 73.7214 147.594 72.7891C148.052 71.8568 148.688 71.1328 149.5 70.6172C150.318 70.1016 151.268 69.8438 152.352 69.8438C153.435 69.8438 154.383 70.1016 155.195 70.6172C156.013 71.1328 156.648 71.8568 157.102 72.7891C157.56 73.7214 157.789 74.8125 157.789 76.0625C157.789 77.3021 157.56 78.3854 157.102 79.3125C156.648 80.2396 156.013 80.9609 155.195 81.4766C154.383 81.9922 153.435 82.25 152.352 82.25ZM152.352 80.5938C153.174 80.5938 153.852 80.3828 154.383 79.9609C154.914 79.5391 155.307 78.9844 155.563 78.2969C155.818 77.6094 155.945 76.8646 155.945 76.0625C155.945 75.2604 155.818 74.513 155.563 73.8203C155.307 73.1276 154.914 72.5677 154.383 72.1406C153.852 71.7135 153.174 71.5 152.352 71.5C151.529 71.5 150.852 71.7135 150.32 72.1406C149.789 72.5677 149.396 73.1276 149.141 73.8203C148.885 74.513 148.758 75.2604 148.758 76.0625C148.758 76.8646 148.885 77.6094 149.141 78.2969C149.396 78.9844 149.789 79.5391 150.32 79.9609C150.852 80.3828 151.529 80.5938 152.352 80.5938ZM171.322 82.25C170.322 82.25 169.439 81.9974 168.674 81.4922C167.908 80.9818 167.309 80.263 166.877 79.3359C166.445 78.4036 166.229 77.3021 166.229 76.0313C166.229 74.7708 166.445 73.6771 166.877 72.75C167.309 71.8229 167.911 71.1068 168.682 70.6016C169.452 70.0964 170.343 69.8438 171.354 69.8438C172.135 69.8438 172.752 69.974 173.205 70.2344C173.663 70.4896 174.012 70.7812 174.252 71.1094C174.497 71.4323 174.687 71.6979 174.822 71.9062H174.979V66H176.822V82H175.041V80.1562H174.822C174.687 80.375 174.494 80.651 174.244 80.9844C173.994 81.3125 173.637 81.6068 173.174 81.8672C172.71 82.1224 172.093 82.25 171.322 82.25ZM171.572 80.5938C172.312 80.5938 172.937 80.401 173.447 80.0156C173.958 79.625 174.346 79.0859 174.611 78.3984C174.877 77.7057 175.01 76.9062 175.01 76C175.01 75.1042 174.88 74.3203 174.619 73.6484C174.359 72.9714 173.973 72.4453 173.463 72.0703C172.952 71.6901 172.322 71.5 171.572 71.5C170.791 71.5 170.14 71.7005 169.619 72.1016C169.104 72.4974 168.715 73.0365 168.455 73.7187C168.2 74.3958 168.072 75.1562 168.072 76C168.072 76.8542 168.202 77.6302 168.463 78.3281C168.729 79.0208 169.119 79.5729 169.635 79.9844C170.156 80.3906 170.801 80.5938 171.572 80.5938ZM185.486 82.25C184.33 82.25 183.333 81.9948 182.494 81.4844C181.661 80.9688 181.018 80.25 180.564 79.3281C180.117 78.401 179.893 77.3229 179.893 76.0938C179.893 74.8646 180.117 73.7812 180.564 72.8437C181.018 71.901 181.648 71.1667 182.455 70.6406C183.268 70.1094 184.215 69.8438 185.299 69.8438C185.924 69.8438 186.541 69.9479 187.15 70.1562C187.76 70.3646 188.314 70.7031 188.814 71.1719C189.314 71.6354 189.713 72.25 190.01 73.0156C190.307 73.7812 190.455 74.724 190.455 75.8437V76.625H181.205V75.0312H188.58C188.58 74.3542 188.445 73.75 188.174 73.2187C187.908 72.6875 187.528 72.2682 187.033 71.9609C186.544 71.6536 185.965 71.5 185.299 71.5C184.564 71.5 183.929 71.6823 183.393 72.0469C182.861 72.4062 182.452 72.875 182.166 73.4531C181.88 74.0312 181.736 74.651 181.736 75.3125V76.375C181.736 77.2813 181.893 78.0495 182.205 78.6797C182.523 79.3047 182.963 79.7812 183.525 80.1094C184.088 80.4323 184.742 80.5938 185.486 80.5938C185.971 80.5938 186.408 80.526 186.799 80.3906C187.195 80.25 187.536 80.0417 187.822 79.7656C188.109 79.4844 188.33 79.1354 188.486 78.7187L190.268 79.2188C190.08 79.8229 189.765 80.3542 189.322 80.8125C188.88 81.2656 188.333 81.6198 187.682 81.875C187.031 82.125 186.299 82.25 185.486 82.25ZM199.697 82V66H205.104C206.359 66 207.385 66.2266 208.182 66.6797C208.984 67.1276 209.577 67.7344 209.963 68.5C210.348 69.2656 210.541 70.1198 210.541 71.0625C210.541 72.0052 210.348 72.862 209.963 73.6328C209.583 74.4036 208.994 75.0182 208.197 75.4766C207.4 75.9297 206.38 76.1562 205.135 76.1562H201.26V74.4375H205.072C205.932 74.4375 206.622 74.2891 207.143 73.9922C207.663 73.6953 208.041 73.2943 208.275 72.7891C208.515 72.2786 208.635 71.7031 208.635 71.0625C208.635 70.4219 208.515 69.849 208.275 69.3437C208.041 68.8385 207.661 68.4427 207.135 68.1562C206.609 67.8646 205.911 67.7187 205.041 67.7187H201.635V82H199.697ZM213.412 82V70H215.193V71.8125H215.318C215.537 71.2188 215.933 70.737 216.506 70.3672C217.079 69.9974 217.725 69.8125 218.443 69.8125C218.579 69.8125 218.748 69.8151 218.951 69.8203C219.154 69.8255 219.308 69.8333 219.412 69.8438V71.7187C219.35 71.7031 219.206 71.6797 218.982 71.6484C218.764 71.612 218.532 71.5937 218.287 71.5937C217.704 71.5937 217.183 71.7161 216.725 71.9609C216.271 72.2005 215.912 72.5339 215.646 72.9609C215.386 73.3828 215.256 73.8646 215.256 74.4062V82H213.412ZM226.264 82.25C225.107 82.25 224.11 81.9948 223.271 81.4844C222.438 80.9688 221.795 80.25 221.342 79.3281C220.894 78.401 220.67 77.3229 220.67 76.0938C220.67 74.8646 220.894 73.7812 221.342 72.8437C221.795 71.901 222.425 71.1667 223.232 70.6406C224.045 70.1094 224.993 69.8438 226.076 69.8438C226.701 69.8438 227.318 69.9479 227.928 70.1562C228.537 70.3646 229.092 70.7031 229.592 71.1719C230.092 71.6354 230.49 72.25 230.787 73.0156C231.084 73.7812 231.232 74.724 231.232 75.8437V76.625H221.982V75.0312H229.357C229.357 74.3542 229.222 73.75 228.951 73.2187C228.686 72.6875 228.305 72.2682 227.811 71.9609C227.321 71.6536 226.743 71.5 226.076 71.5C225.342 71.5 224.706 71.6823 224.17 72.0469C223.639 72.4062 223.23 72.875 222.943 73.4531C222.657 74.0312 222.514 74.651 222.514 75.3125V76.375C222.514 77.2813 222.67 78.0495 222.982 78.6797C223.3 79.3047 223.74 79.7812 224.303 80.1094C224.865 80.4323 225.519 80.5938 226.264 80.5938C226.748 80.5938 227.186 80.526 227.576 80.3906C227.972 80.25 228.313 80.0417 228.6 79.7656C228.886 79.4844 229.107 79.1354 229.264 78.7187L231.045 79.2188C230.857 79.8229 230.542 80.3542 230.1 80.8125C229.657 81.2656 229.11 81.6198 228.459 81.875C227.808 82.125 227.076 82.25 226.264 82.25ZM242.537 72.6875L240.881 73.1562C240.777 72.8802 240.623 72.612 240.42 72.3516C240.222 72.0859 239.951 71.8672 239.607 71.6953C239.264 71.5234 238.824 71.4375 238.287 71.4375C237.553 71.4375 236.941 71.6068 236.451 71.9453C235.967 72.2786 235.725 72.7031 235.725 73.2187C235.725 73.6771 235.891 74.0391 236.225 74.3047C236.558 74.5703 237.079 74.7917 237.787 74.9687L239.568 75.4063C240.641 75.6667 241.441 76.0651 241.967 76.6016C242.493 77.1328 242.756 77.8177 242.756 78.6562C242.756 79.3437 242.558 79.9583 242.162 80.5C241.771 81.0417 241.225 81.4688 240.521 81.7813C239.818 82.0938 239.001 82.25 238.068 82.25C236.844 82.25 235.831 81.9844 235.029 81.4531C234.227 80.9219 233.719 80.1458 233.506 79.125L235.256 78.6875C235.423 79.3333 235.738 79.8177 236.201 80.1406C236.67 80.4635 237.282 80.625 238.037 80.625C238.896 80.625 239.579 80.4427 240.084 80.0781C240.594 79.7083 240.85 79.2656 240.85 78.75C240.85 78.3333 240.704 77.9844 240.412 77.7031C240.12 77.4167 239.673 77.2031 239.068 77.0625L237.068 76.5937C235.969 76.3333 235.162 75.9297 234.646 75.3828C234.136 74.8307 233.881 74.1406 233.881 73.3125C233.881 72.6354 234.071 72.0365 234.451 71.5156C234.837 70.9948 235.36 70.5859 236.021 70.2891C236.688 69.9922 237.443 69.8438 238.287 69.8438C239.475 69.8438 240.407 70.1042 241.084 70.625C241.766 71.1458 242.251 71.8333 242.537 72.6875ZM250.75 70V71.5625H244.531V70H250.75ZM246.344 67.125H248.188V78.5625C248.188 79.0833 248.263 79.474 248.414 79.7344C248.57 79.9896 248.768 80.1615 249.008 80.25C249.253 80.3333 249.51 80.375 249.781 80.375C249.984 80.375 250.151 80.3646 250.281 80.3437C250.411 80.3177 250.516 80.2969 250.594 80.2812L250.969 81.9375C250.844 81.9844 250.669 82.0313 250.445 82.0781C250.221 82.1302 249.938 82.1563 249.594 82.1563C249.073 82.1563 248.563 82.0443 248.063 81.8203C247.568 81.5964 247.156 81.2552 246.828 80.7969C246.505 80.3385 246.344 79.7604 246.344 79.0625V67.125ZM257.055 82.2813C256.294 82.2813 255.604 82.138 254.984 81.8516C254.365 81.5599 253.872 81.1406 253.508 80.5938C253.143 80.0417 252.961 79.375 252.961 78.5937C252.961 77.9062 253.096 77.349 253.367 76.9219C253.638 76.4896 254 76.151 254.453 75.9062C254.906 75.6615 255.406 75.4792 255.953 75.3594C256.505 75.2344 257.06 75.1354 257.617 75.0625C258.346 74.9687 258.938 74.8984 259.391 74.8516C259.849 74.7995 260.182 74.7135 260.391 74.5937C260.604 74.474 260.711 74.2656 260.711 73.9687V73.9062C260.711 73.1354 260.5 72.5365 260.078 72.1094C259.661 71.6823 259.029 71.4687 258.18 71.4687C257.299 71.4687 256.609 71.6615 256.109 72.0469C255.609 72.4323 255.258 72.8437 255.055 73.2812L253.305 72.6562C253.617 71.9271 254.034 71.3594 254.555 70.9531C255.081 70.5417 255.654 70.2552 256.273 70.0937C256.898 69.9271 257.513 69.8438 258.117 69.8438C258.503 69.8438 258.945 69.8906 259.445 69.9844C259.951 70.0729 260.438 70.2578 260.906 70.5391C261.38 70.8203 261.773 71.2448 262.086 71.8125C262.398 72.3802 262.555 73.1406 262.555 74.0938V82H260.711V80.375H260.617C260.492 80.6354 260.284 80.9141 259.992 81.2109C259.701 81.5078 259.313 81.7604 258.828 81.9687C258.344 82.1771 257.753 82.2813 257.055 82.2813ZM257.336 80.625C258.065 80.625 258.68 80.4818 259.18 80.1953C259.685 79.9089 260.065 79.5391 260.32 79.0859C260.581 78.6328 260.711 78.1562 260.711 77.6562V75.9687C260.633 76.0625 260.461 76.1484 260.195 76.2266C259.935 76.2995 259.633 76.3646 259.289 76.4219C258.951 76.474 258.62 76.5208 258.297 76.5625C257.979 76.599 257.721 76.6302 257.523 76.6562C257.044 76.7187 256.596 76.8203 256.18 76.9609C255.768 77.0964 255.435 77.3021 255.18 77.5781C254.93 77.849 254.805 78.2187 254.805 78.6875C254.805 79.3281 255.042 79.8125 255.516 80.1406C255.995 80.4635 256.602 80.625 257.336 80.625ZM270.795 82.25C269.67 82.25 268.701 81.9844 267.889 81.4531C267.076 80.9219 266.451 80.1901 266.014 79.2578C265.576 78.3255 265.357 77.2604 265.357 76.0625C265.357 74.8437 265.581 73.7682 266.029 72.8359C266.482 71.8984 267.113 71.1667 267.92 70.6406C268.732 70.1094 269.68 69.8438 270.764 69.8438C271.607 69.8438 272.368 70 273.045 70.3125C273.722 70.625 274.277 71.0625 274.709 71.625C275.141 72.1875 275.41 72.8437 275.514 73.5937H273.67C273.529 73.0469 273.217 72.5625 272.732 72.1406C272.253 71.7135 271.607 71.5 270.795 71.5C270.076 71.5 269.446 71.6875 268.904 72.0625C268.368 72.4323 267.949 72.9557 267.646 73.6328C267.35 74.3047 267.201 75.0937 267.201 76C267.201 76.9271 267.347 77.7344 267.639 78.4219C267.936 79.1094 268.352 79.6432 268.889 80.0234C269.43 80.4036 270.066 80.5938 270.795 80.5938C271.274 80.5938 271.709 80.5104 272.1 80.3437C272.49 80.1771 272.821 79.9375 273.092 79.625C273.363 79.3125 273.555 78.9375 273.67 78.5H275.514C275.41 79.2083 275.152 79.8464 274.74 80.4141C274.334 80.9766 273.795 81.4245 273.123 81.7578C272.456 82.0859 271.68 82.25 270.795 82.25ZM269.92 81.9375H271.451L271.326 82.5625C271.732 82.625 272.105 82.7943 272.443 83.0703C272.782 83.3516 272.951 83.7969 272.951 84.4062C272.951 85.0781 272.673 85.625 272.115 86.0469C271.563 86.474 270.748 86.6875 269.67 86.6875L269.607 85.4687C270.092 85.4687 270.493 85.3906 270.811 85.2344C271.133 85.0833 271.295 84.8281 271.295 84.4688C271.295 84.1094 271.162 83.8646 270.896 83.7344C270.631 83.6042 270.201 83.5156 269.607 83.4688L269.92 81.9375ZM281.74 82.2813C280.98 82.2813 280.29 82.138 279.67 81.8516C279.05 81.5599 278.558 81.1406 278.193 80.5938C277.829 80.0417 277.646 79.375 277.646 78.5937C277.646 77.9062 277.782 77.349 278.053 76.9219C278.324 76.4896 278.686 76.151 279.139 75.9062C279.592 75.6615 280.092 75.4792 280.639 75.3594C281.191 75.2344 281.745 75.1354 282.303 75.0625C283.032 74.9687 283.623 74.8984 284.076 74.8516C284.535 74.7995 284.868 74.7135 285.076 74.5937C285.29 74.474 285.396 74.2656 285.396 73.9687V73.9062C285.396 73.1354 285.186 72.5365 284.764 72.1094C284.347 71.6823 283.714 71.4687 282.865 71.4687C281.985 71.4687 281.295 71.6615 280.795 72.0469C280.295 72.4323 279.943 72.8437 279.74 73.2812L277.99 72.6562C278.303 71.9271 278.719 71.3594 279.24 70.9531C279.766 70.5417 280.339 70.2552 280.959 70.0937C281.584 69.9271 282.199 69.8438 282.803 69.8438C283.188 69.8438 283.631 69.8906 284.131 69.9844C284.636 70.0729 285.123 70.2578 285.592 70.5391C286.066 70.8203 286.459 71.2448 286.771 71.8125C287.084 72.3802 287.24 73.1406 287.24 74.0938V82H285.396V80.375H285.303C285.178 80.6354 284.969 80.9141 284.678 81.2109C284.386 81.5078 283.998 81.7604 283.514 81.9687C283.029 82.1771 282.438 82.2813 281.74 82.2813ZM282.021 80.625C282.751 80.625 283.365 80.4818 283.865 80.1953C284.37 79.9089 284.751 79.5391 285.006 79.0859C285.266 78.6328 285.396 78.1562 285.396 77.6562V75.9687C285.318 76.0625 285.146 76.1484 284.881 76.2266C284.62 76.2995 284.318 76.3646 283.975 76.4219C283.636 76.474 283.305 76.5208 282.982 76.5625C282.665 76.599 282.407 76.6302 282.209 76.6562C281.73 76.7187 281.282 76.8203 280.865 76.9609C280.454 77.0964 280.12 77.3021 279.865 77.5781C279.615 77.849 279.49 78.2187 279.49 78.6875C279.49 79.3281 279.727 79.8125 280.201 80.1406C280.68 80.4635 281.287 80.625 282.021 80.625ZM280.521 68.5625L279.084 68.5C279.084 67.7031 279.311 67.0521 279.764 66.5469C280.222 66.0365 280.787 65.7812 281.459 65.7812C281.756 65.7812 282.019 65.8333 282.248 65.9375C282.477 66.0365 282.696 66.151 282.904 66.2812C283.113 66.4115 283.326 66.5286 283.545 66.6328C283.769 66.7318 284.021 66.7812 284.303 66.7812C284.6 66.7812 284.85 66.6667 285.053 66.4375C285.261 66.2031 285.365 65.9219 285.365 65.5937L286.771 65.7188C286.771 66.5312 286.542 67.1771 286.084 67.6562C285.631 68.1354 285.068 68.375 284.396 68.375C284.037 68.375 283.74 68.3255 283.506 68.2266C283.271 68.1224 283.063 68.0052 282.881 67.875C282.699 67.7448 282.506 67.6302 282.303 67.5312C282.1 67.4271 281.85 67.375 281.553 67.375C281.256 67.375 281.008 67.4922 280.811 67.7266C280.618 67.9557 280.521 68.2344 280.521 68.5625ZM295.48 82.25C294.397 82.25 293.447 81.9922 292.629 81.4766C291.816 80.9609 291.181 80.2396 290.723 79.3125C290.27 78.3854 290.043 77.3021 290.043 76.0625C290.043 74.8125 290.27 73.7214 290.723 72.7891C291.181 71.8568 291.816 71.1328 292.629 70.6172C293.447 70.1016 294.397 69.8438 295.48 69.8438C296.564 69.8438 297.512 70.1016 298.324 70.6172C299.142 71.1328 299.777 71.8568 300.23 72.7891C300.689 73.7214 300.918 74.8125 300.918 76.0625C300.918 77.3021 300.689 78.3854 300.23 79.3125C299.777 80.2396 299.142 80.9609 298.324 81.4766C297.512 81.9922 296.564 82.25 295.48 82.25ZM295.48 80.5938C296.303 80.5938 296.98 80.3828 297.512 79.9609C298.043 79.5391 298.436 78.9844 298.691 78.2969C298.947 77.6094 299.074 76.8646 299.074 76.0625C299.074 75.2604 298.947 74.513 298.691 73.8203C298.436 73.1276 298.043 72.5677 297.512 72.1406C296.98 71.7135 296.303 71.5 295.48 71.5C294.658 71.5 293.98 71.7135 293.449 72.1406C292.918 72.5677 292.525 73.1276 292.27 73.8203C292.014 74.513 291.887 75.2604 291.887 76.0625C291.887 76.8646 292.014 77.6094 292.27 78.2969C292.525 78.9844 292.918 79.5391 293.449 79.9609C293.98 80.3828 294.658 80.5938 295.48 80.5938ZM314.451 82.25C313.451 82.25 312.568 81.9974 311.803 81.4922C311.037 80.9818 310.438 80.263 310.006 79.3359C309.574 78.4036 309.357 77.3021 309.357 76.0313C309.357 74.7708 309.574 73.6771 310.006 72.75C310.438 71.8229 311.04 71.1068 311.811 70.6016C312.581 70.0964 313.472 69.8438 314.482 69.8438C315.264 69.8438 315.881 69.974 316.334 70.2344C316.792 70.4896 317.141 70.7812 317.381 71.1094C317.626 71.4323 317.816 71.6979 317.951 71.9062H318.107V66H319.951V82H318.17V80.1562H317.951C317.816 80.375 317.623 80.651 317.373 80.9844C317.123 81.3125 316.766 81.6068 316.303 81.8672C315.839 82.1224 315.222 82.25 314.451 82.25ZM314.701 80.5938C315.441 80.5938 316.066 80.401 316.576 80.0156C317.087 79.625 317.475 79.0859 317.74 78.3984C318.006 77.7057 318.139 76.9062 318.139 76C318.139 75.1042 318.008 74.3203 317.748 73.6484C317.488 72.9714 317.102 72.4453 316.592 72.0703C316.081 71.6901 315.451 71.5 314.701 71.5C313.92 71.5 313.269 71.7005 312.748 72.1016C312.232 72.4974 311.844 73.0365 311.584 73.7187C311.329 74.3958 311.201 75.1562 311.201 76C311.201 76.8542 311.331 77.6302 311.592 78.3281C311.857 79.0208 312.248 79.5729 312.764 79.9844C313.285 80.3906 313.93 80.5938 314.701 80.5938ZM328.615 82.25C327.459 82.25 326.462 81.9948 325.623 81.4844C324.79 80.9688 324.146 80.25 323.693 79.3281C323.245 78.401 323.021 77.3229 323.021 76.0938C323.021 74.8646 323.245 73.7812 323.693 72.8437C324.146 71.901 324.777 71.1667 325.584 70.6406C326.396 70.1094 327.344 69.8438 328.428 69.8438C329.053 69.8438 329.67 69.9479 330.279 70.1562C330.889 70.3646 331.443 70.7031 331.943 71.1719C332.443 71.6354 332.842 72.25 333.139 73.0156C333.436 73.7812 333.584 74.724 333.584 75.8437V76.625H324.334V75.0312H331.709C331.709 74.3542 331.574 73.75 331.303 73.2187C331.037 72.6875 330.657 72.2682 330.162 71.9609C329.673 71.6536 329.094 71.5 328.428 71.5C327.693 71.5 327.058 71.6823 326.521 72.0469C325.99 72.4062 325.581 72.875 325.295 73.4531C325.008 74.0312 324.865 74.651 324.865 75.3125V76.375C324.865 77.2813 325.021 78.0495 325.334 78.6797C325.652 79.3047 326.092 79.7812 326.654 80.1094C327.217 80.4323 327.87 80.5938 328.615 80.5938C329.1 80.5938 329.537 80.526 329.928 80.3906C330.324 80.25 330.665 80.0417 330.951 79.7656C331.238 79.4844 331.459 79.1354 331.615 78.7187L333.396 79.2188C333.209 79.8229 332.894 80.3542 332.451 80.8125C332.008 81.2656 331.462 81.6198 330.811 81.875C330.16 82.125 329.428 82.25 328.615 82.25ZM351.576 70C351.482 69.2083 351.102 68.5938 350.436 68.1562C349.769 67.7187 348.951 67.5 347.982 67.5C347.274 67.5 346.654 67.6146 346.123 67.8437C345.597 68.0729 345.186 68.388 344.889 68.7891C344.597 69.1901 344.451 69.6458 344.451 70.1562C344.451 70.5833 344.553 70.9505 344.756 71.2578C344.964 71.5599 345.23 71.8125 345.553 72.0156C345.876 72.2135 346.214 72.3776 346.568 72.5078C346.923 72.6328 347.248 72.7344 347.545 72.8125L349.17 73.25C349.587 73.3594 350.05 73.5104 350.561 73.7031C351.076 73.8958 351.568 74.1589 352.037 74.4922C352.511 74.8203 352.902 75.2422 353.209 75.7578C353.516 76.2734 353.67 76.9062 353.67 77.6562C353.67 78.5208 353.443 79.3021 352.99 80C352.542 80.6979 351.886 81.2526 351.021 81.6641C350.162 82.0755 349.118 82.2813 347.889 82.2813C346.743 82.2813 345.751 82.0964 344.912 81.7266C344.079 81.3568 343.423 80.8411 342.943 80.1797C342.469 79.5182 342.201 78.75 342.139 77.875H344.139C344.191 78.4792 344.394 78.9792 344.748 79.375C345.107 79.7656 345.561 80.0573 346.107 80.25C346.66 80.4375 347.253 80.5312 347.889 80.5312C348.628 80.5312 349.292 80.4115 349.881 80.1719C350.469 79.9271 350.936 79.5885 351.279 79.1562C351.623 78.7187 351.795 78.2083 351.795 77.625C351.795 77.0937 351.646 76.6615 351.35 76.3281C351.053 75.9948 350.662 75.724 350.178 75.5156C349.693 75.3073 349.17 75.125 348.607 74.9687L346.639 74.4062C345.389 74.0469 344.399 73.5339 343.67 72.8672C342.941 72.2005 342.576 71.3281 342.576 70.25C342.576 69.3542 342.818 68.5729 343.303 67.9062C343.792 67.2344 344.449 66.7135 345.271 66.3437C346.1 65.9687 347.024 65.7812 348.045 65.7812C349.076 65.7812 349.993 65.9661 350.795 66.3359C351.597 66.7005 352.232 67.2005 352.701 67.8359C353.175 68.4714 353.425 69.1927 353.451 70H351.576ZM361.637 82.25C360.48 82.25 359.483 81.9948 358.645 81.4844C357.811 80.9688 357.168 80.25 356.715 79.3281C356.267 78.401 356.043 77.3229 356.043 76.0938C356.043 74.8646 356.267 73.7812 356.715 72.8437C357.168 71.901 357.798 71.1667 358.605 70.6406C359.418 70.1094 360.366 69.8438 361.449 69.8438C362.074 69.8438 362.691 69.9479 363.301 70.1562C363.91 70.3646 364.465 70.7031 364.965 71.1719C365.465 71.6354 365.863 72.25 366.16 73.0156C366.457 73.7812 366.605 74.724 366.605 75.8437V76.625H357.355V75.0312H364.73C364.73 74.3542 364.595 73.75 364.324 73.2187C364.059 72.6875 363.678 72.2682 363.184 71.9609C362.694 71.6536 362.116 71.5 361.449 71.5C360.715 71.5 360.079 71.6823 359.543 72.0469C359.012 72.4062 358.603 72.875 358.316 73.4531C358.03 74.0312 357.887 74.651 357.887 75.3125V76.375C357.887 77.2813 358.043 78.0495 358.355 78.6797C358.673 79.3047 359.113 79.7812 359.676 80.1094C360.238 80.4323 360.892 80.5938 361.637 80.5938C362.121 80.5938 362.559 80.526 362.949 80.3906C363.345 80.25 363.686 80.0417 363.973 79.7656C364.259 79.4844 364.48 79.1354 364.637 78.7187L366.418 79.2188C366.23 79.8229 365.915 80.3542 365.473 80.8125C365.03 81.2656 364.483 81.6198 363.832 81.875C363.181 82.125 362.449 82.25 361.637 82.25ZM369.41 82V70H371.191V71.8125H371.316C371.535 71.2188 371.931 70.737 372.504 70.3672C373.077 69.9974 373.723 69.8125 374.441 69.8125C374.577 69.8125 374.746 69.8151 374.949 69.8203C375.152 69.8255 375.306 69.8333 375.41 69.8438V71.7187C375.348 71.7031 375.204 71.6797 374.98 71.6484C374.762 71.612 374.53 71.5937 374.285 71.5937C373.702 71.5937 373.181 71.7161 372.723 71.9609C372.27 72.2005 371.91 72.5339 371.645 72.9609C371.384 73.3828 371.254 73.8646 371.254 74.4062V82H369.41ZM387.773 70L383.336 82H381.461L377.023 70H379.023L382.336 79.5625H382.461L385.773 70H387.773ZM390.207 82V70H392.051V82H390.207ZM391.145 68C390.785 68 390.475 67.8776 390.215 67.6328C389.96 67.388 389.832 67.0938 389.832 66.75C389.832 66.4063 389.96 66.112 390.215 65.8672C390.475 65.6224 390.785 65.5 391.145 65.5C391.504 65.5 391.811 65.6224 392.066 65.8672C392.327 66.112 392.457 66.4063 392.457 66.75C392.457 67.0938 392.327 67.388 392.066 67.6328C391.811 67.8776 391.504 68 391.145 68ZM400.303 82.25C399.178 82.25 398.209 81.9844 397.396 81.4531C396.584 80.9219 395.959 80.1901 395.521 79.2578C395.084 78.3255 394.865 77.2604 394.865 76.0625C394.865 74.8437 395.089 73.7682 395.537 72.8359C395.99 71.8984 396.62 71.1667 397.428 70.6406C398.24 70.1094 399.188 69.8438 400.271 69.8438C401.115 69.8438 401.876 70 402.553 70.3125C403.23 70.625 403.785 71.0625 404.217 71.625C404.649 72.1875 404.917 72.8437 405.021 73.5937H403.178C403.037 73.0469 402.725 72.5625 402.24 72.1406C401.761 71.7135 401.115 71.5 400.303 71.5C399.584 71.5 398.954 71.6875 398.412 72.0625C397.876 72.4323 397.456 72.9557 397.154 73.6328C396.857 74.3047 396.709 75.0937 396.709 76C396.709 76.9271 396.855 77.7344 397.146 78.4219C397.443 79.1094 397.86 79.6432 398.396 80.0234C398.938 80.4036 399.574 80.5938 400.303 80.5938C400.782 80.5938 401.217 80.5104 401.607 80.3437C401.998 80.1771 402.329 79.9375 402.6 79.625C402.87 79.3125 403.063 78.9375 403.178 78.5H405.021C404.917 79.2083 404.66 79.8464 404.248 80.4141C403.842 80.9766 403.303 81.4245 402.631 81.7578C401.964 82.0859 401.188 82.25 400.303 82.25ZM399.428 81.9375H400.959L400.834 82.5625C401.24 82.625 401.613 82.7943 401.951 83.0703C402.29 83.3516 402.459 83.7969 402.459 84.4062C402.459 85.0781 402.18 85.625 401.623 86.0469C401.071 86.474 400.256 86.6875 399.178 86.6875L399.115 85.4687C399.6 85.4687 400.001 85.3906 400.318 85.2344C400.641 85.0833 400.803 84.8281 400.803 84.4688C400.803 84.1094 400.67 83.8646 400.404 83.7344C400.139 83.6042 399.709 83.5156 399.115 83.4688L399.428 81.9375ZM412.592 82.25C411.508 82.25 410.558 81.9922 409.74 81.4766C408.928 80.9609 408.292 80.2396 407.834 79.3125C407.381 78.3854 407.154 77.3021 407.154 76.0625C407.154 74.8125 407.381 73.7214 407.834 72.7891C408.292 71.8568 408.928 71.1328 409.74 70.6172C410.558 70.1016 411.508 69.8438 412.592 69.8438C413.675 69.8438 414.623 70.1016 415.436 70.6172C416.253 71.1328 416.889 71.8568 417.342 72.7891C417.8 73.7214 418.029 74.8125 418.029 76.0625C418.029 77.3021 417.8 78.3854 417.342 79.3125C416.889 80.2396 416.253 80.9609 415.436 81.4766C414.623 81.9922 413.675 82.25 412.592 82.25ZM412.592 80.5938C413.415 80.5938 414.092 80.3828 414.623 79.9609C415.154 79.5391 415.548 78.9844 415.803 78.2969C416.058 77.6094 416.186 76.8646 416.186 76.0625C416.186 75.2604 416.058 74.513 415.803 73.8203C415.548 73.1276 415.154 72.5677 414.623 72.1406C414.092 71.7135 413.415 71.5 412.592 71.5C411.769 71.5 411.092 71.7135 410.561 72.1406C410.029 72.5677 409.636 73.1276 409.381 73.8203C409.126 74.513 408.998 75.2604 408.998 76.0625C408.998 76.8646 409.126 77.6094 409.381 78.2969C409.636 78.9844 410.029 79.5391 410.561 79.9609C411.092 80.3828 411.769 80.5938 412.592 80.5938ZM429.344 72.6875L427.688 73.1562C427.583 72.8802 427.43 72.612 427.227 72.3516C427.029 72.0859 426.758 71.8672 426.414 71.6953C426.07 71.5234 425.63 71.4375 425.094 71.4375C424.359 71.4375 423.747 71.6068 423.258 71.9453C422.773 72.2786 422.531 72.7031 422.531 73.2187C422.531 73.6771 422.698 74.0391 423.031 74.3047C423.365 74.5703 423.885 74.7917 424.594 74.9687L426.375 75.4063C427.448 75.6667 428.247 76.0651 428.773 76.6016C429.299 77.1328 429.563 77.8177 429.563 78.6562C429.563 79.3437 429.365 79.9583 428.969 80.5C428.578 81.0417 428.031 81.4688 427.328 81.7813C426.625 82.0938 425.807 82.25 424.875 82.25C423.651 82.25 422.638 81.9844 421.836 81.4531C421.034 80.9219 420.526 80.1458 420.313 79.125L422.063 78.6875C422.229 79.3333 422.544 79.8177 423.008 80.1406C423.477 80.4635 424.089 80.625 424.844 80.625C425.703 80.625 426.385 80.4427 426.891 80.0781C427.401 79.7083 427.656 79.2656 427.656 78.75C427.656 78.3333 427.51 77.9844 427.219 77.7031C426.927 77.4167 426.479 77.2031 425.875 77.0625L423.875 76.5937C422.776 76.3333 421.969 75.9297 421.453 75.3828C420.943 74.8307 420.688 74.1406 420.688 73.3125C420.688 72.6354 420.878 72.0365 421.258 71.5156C421.643 70.9948 422.167 70.5859 422.828 70.2891C423.495 69.9922 424.25 69.8438 425.094 69.8438C426.281 69.8438 427.214 70.1042 427.891 70.625C428.573 71.1458 429.057 71.8333 429.344 72.6875Z" fill="black"/>
<path d="M380.949 755V740.455H385.864C387.005 740.455 387.938 740.661 388.662 741.072C389.391 741.48 389.931 742.031 390.281 742.727C390.632 743.423 390.807 744.2 390.807 745.057C390.807 745.914 390.632 746.693 390.281 747.393C389.936 748.094 389.401 748.653 388.676 749.07C387.952 749.482 387.024 749.688 385.892 749.688H382.369V748.125H385.835C386.616 748.125 387.244 747.99 387.717 747.72C388.191 747.45 388.534 747.086 388.747 746.626C388.965 746.162 389.074 745.639 389.074 745.057C389.074 744.474 388.965 743.954 388.747 743.494C388.534 743.035 388.188 742.675 387.71 742.415C387.232 742.15 386.598 742.017 385.807 742.017H382.71V755H380.949ZM397.874 755.227C396.822 755.227 395.916 754.995 395.153 754.531C394.396 754.062 393.811 753.409 393.399 752.571C392.992 751.728 392.788 750.748 392.788 749.631C392.788 748.513 392.992 747.528 393.399 746.676C393.811 745.819 394.384 745.152 395.118 744.673C395.857 744.19 396.718 743.949 397.703 743.949C398.271 743.949 398.832 744.044 399.386 744.233C399.94 744.422 400.445 744.73 400.899 745.156C401.354 745.578 401.716 746.136 401.986 746.832C402.256 747.528 402.391 748.385 402.391 749.403V750.114H393.982V748.665H400.686C400.686 748.049 400.563 747.5 400.317 747.017C400.075 746.534 399.73 746.153 399.28 745.874C398.835 745.594 398.309 745.455 397.703 745.455C397.036 745.455 396.458 745.62 395.97 745.952C395.487 746.278 395.116 746.705 394.855 747.23C394.595 747.756 394.464 748.319 394.464 748.92V749.886C394.464 750.71 394.607 751.409 394.891 751.982C395.179 752.55 395.58 752.983 396.091 753.281C396.602 753.575 397.196 753.722 397.874 753.722C398.314 753.722 398.712 753.66 399.067 753.537C399.427 753.409 399.737 753.22 399.997 752.969C400.258 752.713 400.459 752.396 400.601 752.017L402.22 752.472C402.05 753.021 401.763 753.504 401.361 753.92C400.958 754.332 400.461 754.654 399.869 754.886C399.277 755.114 398.612 755.227 397.874 755.227ZM409.06 755.227C408.151 755.227 407.348 754.998 406.652 754.538C405.956 754.074 405.411 753.421 405.018 752.578C404.625 751.731 404.429 750.729 404.429 749.574C404.429 748.428 404.625 747.434 405.018 746.591C405.411 745.748 405.958 745.097 406.659 744.638C407.36 744.179 408.17 743.949 409.088 743.949C409.798 743.949 410.359 744.067 410.771 744.304C411.188 744.536 411.505 744.801 411.723 745.099C411.946 745.393 412.118 745.634 412.241 745.824H412.384V740.455H414.06V755H412.44V753.324H412.241C412.118 753.523 411.943 753.774 411.716 754.077C411.489 754.375 411.164 754.643 410.743 754.879C410.321 755.111 409.76 755.227 409.06 755.227ZM409.287 753.722C409.959 753.722 410.527 753.546 410.991 753.196C411.455 752.841 411.808 752.351 412.05 751.726C412.291 751.096 412.412 750.369 412.412 749.545C412.412 748.731 412.294 748.018 412.057 747.408C411.82 746.792 411.47 746.314 411.006 745.973C410.542 745.627 409.969 745.455 409.287 745.455C408.577 745.455 407.985 745.637 407.511 746.001C407.043 746.361 406.69 746.851 406.453 747.472C406.221 748.087 406.105 748.778 406.105 749.545C406.105 750.322 406.223 751.027 406.46 751.662C406.702 752.292 407.057 752.794 407.526 753.168C407.999 753.537 408.586 753.722 409.287 753.722ZM417.362 755V744.091H418.982V745.739H419.095C419.294 745.199 419.654 744.761 420.175 744.425C420.696 744.089 421.283 743.92 421.936 743.92C422.059 743.92 422.213 743.923 422.398 743.928C422.582 743.932 422.722 743.939 422.817 743.949V745.653C422.76 745.639 422.63 745.618 422.426 745.589C422.227 745.556 422.017 745.54 421.794 745.54C421.264 745.54 420.79 745.651 420.374 745.874C419.962 746.091 419.635 746.394 419.393 746.783C419.157 747.166 419.038 747.604 419.038 748.097V755H417.362ZM428.903 755.227C427.919 755.227 427.054 754.993 426.311 754.524C425.572 754.055 424.995 753.4 424.578 752.557C424.166 751.714 423.96 750.729 423.96 749.602C423.96 748.466 424.166 747.474 424.578 746.626C424.995 745.779 425.572 745.121 426.311 744.652C427.054 744.183 427.919 743.949 428.903 743.949C429.888 743.949 430.75 744.183 431.489 744.652C432.232 745.121 432.81 745.779 433.222 746.626C433.638 747.474 433.847 748.466 433.847 749.602C433.847 750.729 433.638 751.714 433.222 752.557C432.81 753.4 432.232 754.055 431.489 754.524C430.75 754.993 429.888 755.227 428.903 755.227ZM428.903 753.722C429.652 753.722 430.267 753.53 430.75 753.146C431.233 752.763 431.59 752.259 431.822 751.634C432.054 751.009 432.17 750.331 432.17 749.602C432.17 748.873 432.054 748.194 431.822 747.564C431.59 746.934 431.233 746.425 430.75 746.037C430.267 745.649 429.652 745.455 428.903 745.455C428.155 745.455 427.54 745.649 427.057 746.037C426.574 746.425 426.216 746.934 425.984 747.564C425.752 748.194 425.636 748.873 425.636 749.602C425.636 750.331 425.752 751.009 425.984 751.634C426.216 752.259 426.574 752.763 427.057 753.146C427.54 753.53 428.155 753.722 428.903 753.722ZM450.212 744.091C450.127 743.371 449.781 742.812 449.175 742.415C448.569 742.017 447.826 741.818 446.945 741.818C446.301 741.818 445.738 741.922 445.255 742.131C444.776 742.339 444.402 742.625 444.132 742.99C443.867 743.355 443.735 743.769 443.735 744.233C443.735 744.621 443.827 744.955 444.012 745.234C444.201 745.509 444.443 745.739 444.736 745.923C445.03 746.103 445.337 746.252 445.659 746.371C445.981 746.484 446.277 746.577 446.547 746.648L448.025 747.045C448.403 747.145 448.825 747.282 449.289 747.457C449.757 747.633 450.205 747.872 450.631 748.175C451.062 748.473 451.417 748.857 451.696 749.325C451.976 749.794 452.115 750.369 452.115 751.051C452.115 751.837 451.909 752.547 451.498 753.182C451.09 753.816 450.494 754.321 449.708 754.695C448.926 755.069 447.977 755.256 446.86 755.256C445.818 755.256 444.916 755.088 444.154 754.751C443.396 754.415 442.8 753.946 442.364 753.345C441.933 752.744 441.689 752.045 441.632 751.25H443.451C443.498 751.799 443.683 752.254 444.005 752.614C444.331 752.969 444.743 753.234 445.24 753.409C445.742 753.58 446.282 753.665 446.86 753.665C447.532 753.665 448.136 753.556 448.671 753.338C449.206 753.116 449.63 752.808 449.942 752.415C450.255 752.017 450.411 751.553 450.411 751.023C450.411 750.54 450.276 750.147 450.006 749.844C449.736 749.541 449.381 749.295 448.941 749.105C448.5 748.916 448.025 748.75 447.513 748.608L445.723 748.097C444.587 747.77 443.687 747.304 443.025 746.697C442.362 746.091 442.03 745.298 442.03 744.318C442.03 743.504 442.25 742.794 442.691 742.188C443.136 741.577 443.732 741.103 444.48 740.767C445.233 740.426 446.074 740.256 447.002 740.256C447.939 740.256 448.773 740.424 449.502 740.76C450.231 741.091 450.809 741.546 451.235 742.124C451.666 742.701 451.893 743.357 451.917 744.091H450.212ZM454.784 755V744.091H456.46V755H454.784ZM455.636 742.273C455.31 742.273 455.028 742.161 454.791 741.939C454.559 741.716 454.443 741.449 454.443 741.136C454.443 740.824 454.559 740.556 454.791 740.334C455.028 740.111 455.31 740 455.636 740C455.963 740 456.242 740.111 456.474 740.334C456.711 740.556 456.83 740.824 456.83 741.136C456.83 741.449 456.711 741.716 456.474 741.939C456.242 742.161 455.963 742.273 455.636 742.273ZM461.206 740.455V755H459.53V740.455H461.206ZM473.197 744.091L469.163 755H467.458L463.424 744.091H465.242L468.254 752.784H468.367L471.379 744.091H473.197ZM478.287 755.256C477.596 755.256 476.969 755.125 476.405 754.865C475.842 754.6 475.394 754.219 475.063 753.722C474.731 753.22 474.566 752.614 474.566 751.903C474.566 751.278 474.689 750.772 474.935 750.384C475.181 749.991 475.51 749.683 475.922 749.46C476.334 749.238 476.789 749.072 477.286 748.963C477.788 748.849 478.292 748.759 478.799 748.693C479.462 748.608 479.999 748.544 480.411 748.501C480.828 748.454 481.131 748.376 481.32 748.267C481.514 748.158 481.611 747.969 481.611 747.699V747.642C481.611 746.941 481.419 746.397 481.036 746.009C480.657 745.62 480.082 745.426 479.31 745.426C478.51 745.426 477.882 745.601 477.428 745.952C476.973 746.302 476.654 746.676 476.469 747.074L474.878 746.506C475.162 745.843 475.541 745.327 476.015 744.957C476.493 744.583 477.014 744.323 477.577 744.176C478.145 744.025 478.704 743.949 479.253 743.949C479.604 743.949 480.006 743.991 480.461 744.077C480.92 744.157 481.363 744.325 481.789 744.581C482.22 744.837 482.577 745.223 482.861 745.739C483.145 746.255 483.287 746.946 483.287 747.812V755H481.611V753.523H481.526C481.412 753.759 481.223 754.013 480.958 754.283C480.693 754.553 480.34 754.782 479.9 754.972C479.459 755.161 478.922 755.256 478.287 755.256ZM478.543 753.75C479.206 753.75 479.765 753.62 480.219 753.359C480.678 753.099 481.024 752.763 481.256 752.351C481.493 751.939 481.611 751.506 481.611 751.051V749.517C481.54 749.602 481.384 749.68 481.142 749.751C480.906 749.818 480.631 749.877 480.319 749.929C480.011 749.976 479.71 750.019 479.417 750.057C479.128 750.09 478.893 750.118 478.713 750.142C478.278 750.199 477.871 750.291 477.492 750.419C477.118 750.542 476.815 750.729 476.583 750.98C476.355 751.226 476.242 751.562 476.242 751.989C476.242 752.571 476.457 753.011 476.888 753.31C477.324 753.603 477.875 753.75 478.543 753.75Z" fill="black"/>
<rect x="38" y="124" width="442" height="28" fill="#F4F4F4"/>
<rect x="38" y="176" width="372" height="28" fill="#F4F4F4"/>
<rect x="38" y="228" width="298" height="28" fill="#F4F4F4"/>
<rect x="38" y="314" width="372" height="28" fill="#F4F4F4"/>
<rect x="38" y="366" width="298" height="28" fill="#F4F4F4"/>
<rect x="362" y="702" width="140" height="28" fill="#F4F4F4"/>
</svg>
