<svg width="243" height="243" viewBox="0 0 243 243" fill="none" xmlns="http://www.w3.org/2000/svg">
<g clip-path="url(#clip0_119_70)">
<path d="M121.5 0C97.4696 0 73.9788 7.12585 53.9983 20.4764C34.0177 33.827 18.4447 52.8027 9.24869 75.004C0.0526443 97.2052 -2.35346 121.635 2.33464 145.203C7.02275 168.772 18.5945 190.421 35.5866 207.413C52.5787 224.406 74.2279 235.977 97.7966 240.665C121.365 245.354 145.795 242.947 167.996 233.751C190.197 224.555 209.173 208.982 222.524 189.002C235.874 169.021 243 145.53 243 121.5C242.965 89.2869 230.153 58.4031 207.375 35.625C184.597 12.8469 153.713 0.034841 121.5 0V0ZM209.051 70.875H176.438C169.138 53.956 159.525 38.1316 147.876 23.8545C173.659 30.8704 195.638 47.7644 209.051 70.875V70.875ZM167.063 121.5C166.979 131.809 165.355 142.047 162.243 151.875H80.7571C77.6451 142.047 76.0207 131.809 75.9376 121.5C76.0207 111.191 77.6451 100.953 80.7571 91.125H162.243C165.355 100.953 166.979 111.191 167.063 121.5V121.5ZM88.8773 172.125H154.123C145.529 189.092 134.543 204.736 121.5 218.579C108.453 204.74 97.4657 189.095 88.8773 172.125V172.125ZM88.8773 70.875C97.471 53.9083 108.457 38.264 121.5 24.4215C134.547 38.2601 145.534 53.9051 154.123 70.875H88.8773ZM95.1751 23.8545C83.5076 38.1286 73.878 53.9531 66.5618 70.875H33.9492C47.3735 47.7539 69.3731 30.8585 95.1751 23.8545V23.8545ZM24.9177 91.125H59.7376C57.1127 101.039 55.7519 111.245 55.6876 121.5C55.7519 131.755 57.1127 141.961 59.7376 151.875H24.9177C18.6943 132.103 18.6943 110.897 24.9177 91.125V91.125ZM33.9492 172.125H66.5618C73.878 189.047 83.5076 204.871 95.1751 219.146C69.3731 212.142 47.3735 195.246 33.9492 172.125V172.125ZM147.876 219.146C159.525 204.868 169.138 189.044 176.438 172.125H209.051C195.638 195.236 173.659 212.13 147.876 219.146V219.146ZM218.082 151.875H183.263C185.887 141.961 187.248 131.755 187.313 121.5C187.248 111.245 185.887 101.039 183.263 91.125H218.062C224.286 110.897 224.286 132.103 218.062 151.875H218.082Z" fill="#0E1A2B"/>
</g>
<defs>
<clipPath id="clip0_119_70">
<rect width="243" height="243" fill="white"/>
</clipPath>
</defs>
</svg>
